<?xml version="1.0" encoding="utf-8" ?>
<svg baseProfile="full" height="320.0" version="1.1" width="800" xmlns="http://www.w3.org/2000/svg" xmlns:ev="http://www.w3.org/2001/xml-events" xmlns:xlink="http://www.w3.org/1999/xlink"><defs /><rect fill="white" height="320.0" width="800" x="0" y="0" /><path d="M 66.793,39.063 L 46.3735,56.1895 " fill="rgb(65,196,195)" stroke="rgb(65,196,195)" stroke-width="2.0" /><path d="M 60.0685,76.8355 " fill="rgb(20,128,125)" stroke="rgb(20,128,125)" stroke-width="2.0" /><path d="M 60.069,76.835 L 60.5235,87.5375 " fill="rgb(20,128,125)" stroke="rgb(20,128,125)" stroke-width="2.0" /><path d="M 64.8795,49.2895 " fill="rgb(111,132,5)" stroke="rgb(111,132,5)" stroke-width="2.0" /><path d="M 64.88,49.289 L 68.4185,53.8445 " fill="rgb(111,132,5)" stroke="rgb(111,132,5)" stroke-width="2.0" /><path d="M 68.419,53.844 L 69.6655,59.4815 " fill="rgb(111,132,5)" stroke="rgb(111,132,5)" stroke-width="2.0" /><path d="M 69.666,59.481 L 61.1215,74.1585 " fill="rgb(111,132,5)" stroke="rgb(111,132,5)" stroke-width="2.0" /><path d="M 61.122,74.159 L 56.2035,86.1885 " fill="rgb(111,132,5)" stroke="rgb(111,132,5)" stroke-width="2.0" /><path d="M 56.204,86.189 L 46.6465,96.4925 " fill="rgb(111,132,5)" stroke="rgb(111,132,5)" stroke-width="2.0" /><path d="M 59.0855,79.3705 " fill="rgb(172,166,79)" stroke="rgb(172,166,79)" stroke-width="2.0" /><path d="M 59.086,79.371 L 59.6955,83.1755 " fill="rgb(172,166,79)" stroke="rgb(172,166,79)" stroke-width="2.0" /><path d="M 59.696,83.176 L 59.7505,94.8705 " fill="rgb(172,166,79)" stroke="rgb(172,166,79)" stroke-width="2.0" /><path d="M 59.751,94.871 L 59.7425,109.4475 " fill="rgb(172,166,79)" stroke="rgb(172,166,79)" stroke-width="2.0" /><path d="M 59.743,109.448 L 59.8185,120.9365 " fill="rgb(172,166,79)" stroke="rgb(172,166,79)" stroke-width="2.0" /><path d="M 61.8645,77.5705 " fill="rgb(7,158,159)" stroke="rgb(7,158,159)" stroke-width="2.0" /><path d="M 61.865,77.571 L 66.8095,80.4235 " fill="rgb(7,158,159)" stroke="rgb(7,158,159)" stroke-width="2.0" /><path d="M 66.81,80.424 L 71.3935,85.4305 " fill="rgb(7,158,159)" stroke="rgb(7,158,159)" stroke-width="2.0" /><path d="M 92.2085,53.4375 " fill="rgb(209,16,187)" stroke="rgb(209,16,187)" stroke-width="2.0" /><path d="M 92.209,53.438 L 91.7865,56.4245 " fill="rgb(209,16,187)" stroke="rgb(209,16,187)" stroke-width="2.0" /><path d="M 91.787,56.425 L 91.8215,62.3745 " fill="rgb(209,16,187)" stroke="rgb(209,16,187)" stroke-width="2.0" /><path d="M 91.822,62.375 L 91.8855,79.3135 " fill="rgb(209,16,187)" stroke="rgb(209,16,187)" stroke-width="2.0" /><path d="M 91.886,79.314 L 91.9135,88.6005 " fill="rgb(209,16,187)" stroke="rgb(209,16,187)" stroke-width="2.0" /><path d="M 93.8095,67.2675 " fill="rgb(135,173,222)" stroke="rgb(135,173,222)" stroke-width="2.0" /><path d="M 93.81,67.268 L 101.2185,66.2005 " fill="rgb(135,173,222)" stroke="rgb(135,173,222)" stroke-width="2.0" /><path d="M 101.219,66.201 L 108.8075,64.8415 " fill="rgb(135,173,222)" stroke="rgb(135,173,222)" stroke-width="2.0" /><path d="M 108.808,64.842 L 112.7745,64.8555 " fill="rgb(135,173,222)" stroke="rgb(135,173,222)" stroke-width="2.0" /><path d="M 85.0165,73.8985 " fill="rgb(124,93,63)" stroke="rgb(124,93,63)" stroke-width="2.0" /><path d="M 85.017,73.899 L 86.6105,75.7355 " fill="rgb(124,93,63)" stroke="rgb(124,93,63)" stroke-width="2.0" /><path d="M 86.611,75.736 L 86.5955,82.0955 " fill="rgb(124,93,63)" stroke="rgb(124,93,63)" stroke-width="2.0" /><path d="M 86.596,82.096 L 86.6505,91.0025 " fill="rgb(124,93,63)" stroke="rgb(124,93,63)" stroke-width="2.0" /><path d="M 86.651,91.003 L 86.7565,100.1235 " fill="rgb(124,93,63)" stroke="rgb(124,93,63)" stroke-width="2.0" /><path d="M 79.1075,100.3545 " fill="rgb(43,7,31)" stroke="rgb(43,7,31)" stroke-width="2.0" /><path d="M 79.108,100.355 L 86.3645,100.9525 " fill="rgb(43,7,31)" stroke="rgb(43,7,31)" stroke-width="2.0" /><path d="M 86.365,100.953 L 95.8235,99.5975 " fill="rgb(43,7,31)" stroke="rgb(43,7,31)" stroke-width="2.0" /><path d="M 95.824,99.598 L 103.8895,98.6145 " fill="rgb(43,7,31)" stroke="rgb(43,7,31)" stroke-width="2.0" /><path d="M 103.89,98.615 L 113.6265,97.6895 " fill="rgb(43,7,31)" stroke="rgb(43,7,31)" stroke-width="2.0" /><path d="M 224.701,63.783 L 233.1575,71.1475 " fill="rgb(43,7,31)" stroke="rgb(43,7,31)" stroke-width="2.0" /><path d="M 251.2995,58.1705 " fill="rgb(10,168,177)" stroke="rgb(10,168,177)" stroke-width="2.0" /><path d="M 251.299,58.17 L 259.7435,56.3925 " fill="rgb(10,168,177)" stroke="rgb(10,168,177)" stroke-width="2.0" /><path d="M 262.4575,60.6185 " fill="rgb(93,206,137)" stroke="rgb(93,206,137)" stroke-width="2.0" /><path d="M 262.457,60.618 L 265.5625,63.9405 " fill="rgb(93,206,137)" stroke="rgb(93,206,137)" stroke-width="2.0" /><path d="M 233.5925,67.8365 " fill="rgb(68,41,55)" stroke="rgb(68,41,55)" stroke-width="2.0" /><path d="M 233.593,67.836 L 235.0085,72.9165 " fill="rgb(68,41,55)" stroke="rgb(68,41,55)" stroke-width="2.0" /><path d="M 235.008,72.916 L 234.8945,76.8575 " fill="rgb(68,41,55)" stroke="rgb(68,41,55)" stroke-width="2.0" /><path d="M 234.894,76.857 L 234.8605,90.0705 " fill="rgb(68,41,55)" stroke="rgb(68,41,55)" stroke-width="2.0" /><path d="M 234.861,90.07 L 234.7985,101.4895 " fill="rgb(68,41,55)" stroke="rgb(68,41,55)" stroke-width="2.0" /><path d="M 214.4375,102.8415 " fill="rgb(113,60,26)" stroke="rgb(113,60,26)" stroke-width="2.0" /><path d="M 214.438,102.841 L 221.0555,103.6075 " fill="rgb(113,60,26)" stroke="rgb(113,60,26)" stroke-width="2.0" /><path d="M 221.055,103.607 L 233.1715,101.9915 " fill="rgb(113,60,26)" stroke="rgb(113,60,26)" stroke-width="2.0" /><path d="M 233.171,101.991 L 245.4395,100.4205 " fill="rgb(113,60,26)" stroke="rgb(113,60,26)" stroke-width="2.0" /><path d="M 245.439,100.42 L 251.7515,101.0635 " fill="rgb(113,60,26)" stroke="rgb(113,60,26)" stroke-width="2.0" /><path d="M 358.379,51.063 L 345.7685,62.186 " fill="rgb(113,60,26)" stroke="rgb(113,60,26)" stroke-width="2.0" /><path d="M 344.2085,70.278 " fill="rgb(30,187,117)" stroke="rgb(30,187,117)" stroke-width="2.0" /><path d="M 344.209,70.278 L 348.5595,66.838 " fill="rgb(30,187,117)" stroke="rgb(30,187,117)" stroke-width="2.0" /><path d="M 348.56,66.838 L 358.6215,62.989 " fill="rgb(30,187,117)" stroke="rgb(30,187,117)" stroke-width="2.0" /><path d="M 363.7655,64.508 " fill="rgb(40,165,1)" stroke="rgb(40,165,1)" stroke-width="2.0" /><path d="M 363.766,64.508 L 365.1155,68.505 " fill="rgb(40,165,1)" stroke="rgb(40,165,1)" stroke-width="2.0" /><path d="M 365.116,68.505 L 359.0905,81.007 " fill="rgb(40,165,1)" stroke="rgb(40,165,1)" stroke-width="2.0" /><path d="M 359.091,81.007 L 352.5605,92.235 " fill="rgb(40,165,1)" stroke="rgb(40,165,1)" stroke-width="2.0" /><path d="M 366.8015,77.412 " fill="rgb(109,101,112)" stroke="rgb(109,101,112)" stroke-width="2.0" /><path d="M 366.802,77.412 L 369.4585,80.678 " fill="rgb(109,101,112)" stroke="rgb(109,101,112)" stroke-width="2.0" /><path d="M 369.459,80.678 L 369.4635,91.122 " fill="rgb(109,101,112)" stroke="rgb(109,101,112)" stroke-width="2.0" /><path d="M 369.464,91.122 L 369.4585,102.633 " fill="rgb(109,101,112)" stroke="rgb(109,101,112)" stroke-width="2.0" /><path d="M 369.459,102.633 L 369.5335,111.545 " fill="rgb(109,101,112)" stroke="rgb(109,101,112)" stroke-width="2.0" /><path d="M 369.534,111.545 L 369.6145,118.811 " fill="rgb(109,101,112)" stroke="rgb(109,101,112)" stroke-width="2.0" /><path d="M 371.5155,81.813 " fill="rgb(11,55,188)" stroke="rgb(11,55,188)" stroke-width="2.0" /><path d="M 371.516,81.813 L 374.6605,85.352 " fill="rgb(11,55,188)" stroke="rgb(11,55,188)" stroke-width="2.0" /><path d="M 374.661,85.352 L 379.9455,91.951 " fill="rgb(11,55,188)" stroke="rgb(11,55,188)" stroke-width="2.0" /><path d="M 396.5615,56.176 " fill="rgb(209,171,40)" stroke="rgb(209,171,40)" stroke-width="2.0" /><path d="M 396.562,56.176 L 398.8495,60.571 " fill="rgb(209,171,40)" stroke="rgb(209,171,40)" stroke-width="2.0" /><path d="M 398.85,60.571 L 398.8215,72.775 " fill="rgb(209,171,40)" stroke="rgb(209,171,40)" stroke-width="2.0" /><path d="M 408.4215,41.189 " fill="rgb(112,16,27)" stroke="rgb(112,16,27)" stroke-width="2.0" /><path d="M 408.422,41.189 L 408.0615,44.225 " fill="rgb(112,16,27)" stroke="rgb(112,16,27)" stroke-width="2.0" /><path d="M 408.062,44.225 L 407.1685,50.912 " fill="rgb(112,16,27)" stroke="rgb(112,16,27)" stroke-width="2.0" /><path d="M 382.4965,63.651 " fill="rgb(79,69,68)" stroke="rgb(79,69,68)" stroke-width="2.0" /><path d="M 382.497,63.651 L 389.8515,63.18 " fill="rgb(79,69,68)" stroke="rgb(79,69,68)" stroke-width="2.0" /><path d="M 389.852,63.18 L 399.6865,61.835 " fill="rgb(79,69,68)" stroke="rgb(79,69,68)" stroke-width="2.0" /><path d="M 399.687,61.835 L 407.4645,60.644 " fill="rgb(79,69,68)" stroke="rgb(79,69,68)" stroke-width="2.0" /><path d="M 407.465,60.644 L 414.5475,60.303 " fill="rgb(79,69,68)" stroke="rgb(79,69,68)" stroke-width="2.0" /><path d="M 414.548,60.303 L 418.7745,60.499 " fill="rgb(79,69,68)" stroke="rgb(79,69,68)" stroke-width="2.0" /><path d="M 383.4755,76.775 " fill="rgb(63,53,21)" stroke="rgb(63,53,21)" stroke-width="2.0" /><path d="M 383.476,76.775 L 388.8575,76.598 " fill="rgb(63,53,21)" stroke="rgb(63,53,21)" stroke-width="2.0" /><path d="M 388.858,76.598 L 397.1405,76.03 " fill="rgb(63,53,21)" stroke="rgb(63,53,21)" stroke-width="2.0" /><path d="M 405.0255,74.93 " fill="rgb(4,38,129)" stroke="rgb(4,38,129)" stroke-width="2.0" /><path d="M 405.026,74.93 L 413.2075,74.527 " fill="rgb(4,38,129)" stroke="rgb(4,38,129)" stroke-width="2.0" /><path d="M 413.208,74.527 L 419.4975,74.353 " fill="rgb(4,38,129)" stroke="rgb(4,38,129)" stroke-width="2.0" /><path d="M 419.498,74.353 L 425.3155,74.644 " fill="rgb(4,38,129)" stroke="rgb(4,38,129)" stroke-width="2.0" /><path d="M 387.4045,90.847 " fill="rgb(116,171,168)" stroke="rgb(116,171,168)" stroke-width="2.0" /><path d="M 387.405,90.847 L 393.4795,90.374 " fill="rgb(116,171,168)" stroke="rgb(116,171,168)" stroke-width="2.0" /><path d="M 393.48,90.374 L 404.0655,89.455 " fill="rgb(116,171,168)" stroke="rgb(116,171,168)" stroke-width="2.0" /><path d="M 404.066,89.455 L 414.5935,88.839 " fill="rgb(116,171,168)" stroke="rgb(116,171,168)" stroke-width="2.0" /><path d="M 414.594,88.839 L 424.6815,88.317 " fill="rgb(116,171,168)" stroke="rgb(116,171,168)" stroke-width="2.0" /><path d="M 424.682,88.317 L 431.2525,88.446 " fill="rgb(116,171,168)" stroke="rgb(116,171,168)" stroke-width="2.0" /><path d="M 386.6765,100.084 " fill="rgb(37,190,109)" stroke="rgb(37,190,109)" stroke-width="2.0" /><path d="M 386.677,100.084 L 393.5745,99.923 " fill="rgb(37,190,109)" stroke="rgb(37,190,109)" stroke-width="2.0" /><path d="M 393.575,99.923 L 404.8775,98.592 " fill="rgb(37,190,109)" stroke="rgb(37,190,109)" stroke-width="2.0" /><path d="M 404.878,98.592 L 416.7525,98.029 " fill="rgb(37,190,109)" stroke="rgb(37,190,109)" stroke-width="2.0" /><path d="M 416.753,98.029 L 428.8675,97.27 " fill="rgb(37,190,109)" stroke="rgb(37,190,109)" stroke-width="2.0" /><path d="M 437.6345,96.328 " fill="rgb(174,142,140)" stroke="rgb(174,142,140)" stroke-width="2.0" /><path d="M 437.635,96.328 L 445.6475,96.554 " fill="rgb(174,142,140)" stroke="rgb(174,142,140)" stroke-width="2.0" /><path d="M 407.3725,100.949 " fill="rgb(91,195,81)" stroke="rgb(91,195,81)" stroke-width="2.0" /><path d="M 407.373,100.949 L 408.0695,104.9 " fill="rgb(91,195,81)" stroke="rgb(91,195,81)" stroke-width="2.0" /><path d="M 408.07,104.9 L 408.0925,111.499 " fill="rgb(91,195,81)" stroke="rgb(91,195,81)" stroke-width="2.0" /><path d="M 437.8165,102.489 " fill="rgb(91,33,115)" stroke="rgb(91,33,115)" stroke-width="2.0" /><path d="M 437.817,102.489 L 455.7915,102.37 " fill="rgb(91,33,115)" stroke="rgb(91,33,115)" stroke-width="2.0" /><path d="M 539.102,26.517 L 552.343,45.162 " fill="rgb(91,33,115)" stroke="rgb(91,33,115)" stroke-width="2.0" /><path d="M 536.768,56.71 " fill="rgb(156,124,204)" stroke="rgb(156,124,204)" stroke-width="2.0" /><path d="M 540.618,56.579 " fill="rgb(218,113,63)" stroke="rgb(218,113,63)" stroke-width="2.0" /><path d="M 540.618,56.579 L 550.907,52.633 " fill="rgb(218,113,63)" stroke="rgb(218,113,63)" stroke-width="2.0" /><path d="M 527.624,68.356 " fill="rgb(222,10,8)" stroke="rgb(222,10,8)" stroke-width="2.0" /><path d="M 527.624,68.356 L 537.156,68.186 " fill="rgb(222,10,8)" stroke="rgb(222,10,8)" stroke-width="2.0" /><path d="M 537.156,68.186 L 548.365,64.679 " fill="rgb(222,10,8)" stroke="rgb(222,10,8)" stroke-width="2.0" /><path d="M 548.365,64.679 L 550.28,66.761 " fill="rgb(222,10,8)" stroke="rgb(222,10,8)" stroke-width="2.0" /><path d="M 550.28,66.761 L 545.516,75.562 " fill="rgb(222,10,8)" stroke="rgb(222,10,8)" stroke-width="2.0" /><path d="M 545.516,75.562 L 535.353,85.669 " fill="rgb(222,10,8)" stroke="rgb(222,10,8)" stroke-width="2.0" /><path d="M 535.353,85.669 L 525.213,95.566 " fill="rgb(222,10,8)" stroke="rgb(222,10,8)" stroke-width="2.0" /><path d="M 541.329,82.603 " fill="rgb(182,79,179)" stroke="rgb(182,79,179)" stroke-width="2.0" /><path d="M 541.329,82.603 L 542.867,86.04 " fill="rgb(182,79,179)" stroke="rgb(182,79,179)" stroke-width="2.0" /><path d="M 542.867,86.04 L 543.014,96.653 " fill="rgb(182,79,179)" stroke="rgb(182,79,179)" stroke-width="2.0" /><path d="M 543.014,96.653 L 543.01,107.961 " fill="rgb(182,79,179)" stroke="rgb(182,79,179)" stroke-width="2.0" /><path d="M 543.01,107.961 L 543.014,117.827 " fill="rgb(182,79,179)" stroke="rgb(182,79,179)" stroke-width="2.0" /><path d="M 543.014,117.827 L 543.09,123.494 " fill="rgb(182,79,179)" stroke="rgb(182,79,179)" stroke-width="2.0" /><path d="M 545.043,79.014 " fill="rgb(141,12,24)" stroke="rgb(141,12,24)" stroke-width="2.0" /><path d="M 545.043,79.014 L 551.795,84.071 " fill="rgb(141,12,24)" stroke="rgb(141,12,24)" stroke-width="2.0" /><path d="M 551.795,84.071 L 558.153,91.147 " fill="rgb(141,12,24)" stroke="rgb(141,12,24)" stroke-width="2.0" /><path d="M 570.431,38.288 " fill="rgb(102,216,86)" stroke="rgb(102,216,86)" stroke-width="2.0" /><path d="M 570.431,38.288 L 573.925,43.14 " fill="rgb(102,216,86)" stroke="rgb(102,216,86)" stroke-width="2.0" /><path d="M 573.925,43.14 L 573.977,52.025 " fill="rgb(102,216,86)" stroke="rgb(102,216,86)" stroke-width="2.0" /><path d="M 554.09,69.895 " fill="rgb(136,47,64)" stroke="rgb(136,47,64)" stroke-width="2.0" /><path d="M 554.09,69.895 L 560.288,70.195 " fill="rgb(136,47,64)" stroke="rgb(136,47,64)" stroke-width="2.0" /><path d="M 560.288,70.195 L 565.474,68.726 " fill="rgb(136,47,64)" stroke="rgb(136,47,64)" stroke-width="2.0" /><path d="M 565.474,68.726 L 573.381,68.157 " fill="rgb(136,47,64)" stroke="rgb(136,47,64)" stroke-width="2.0" /><path d="M 573.381,68.157 L 581.481,67.049 " fill="rgb(136,47,64)" stroke="rgb(136,47,64)" stroke-width="2.0" /><path d="M 581.481,67.049 L 584.637,66.741 " fill="rgb(136,47,64)" stroke="rgb(136,47,64)" stroke-width="2.0" /><path d="M 558.158,73.768 " fill="rgb(9,13,184)" stroke="rgb(9,13,184)" stroke-width="2.0" /><path d="M 558.158,73.768 L 559.191,80.52 " fill="rgb(9,13,184)" stroke="rgb(9,13,184)" stroke-width="2.0" /><path d="M 559.191,80.52 L 559.372,89.623 " fill="rgb(9,13,184)" stroke="rgb(9,13,184)" stroke-width="2.0" /><path d="M 578.939,72.984 " fill="rgb(42,186,155)" stroke="rgb(42,186,155)" stroke-width="2.0" /><path d="M 578.939,72.984 L 578.235,75.575 " fill="rgb(42,186,155)" stroke="rgb(42,186,155)" stroke-width="2.0" /><path d="M 578.235,75.575 L 574.585,82.763 " fill="rgb(42,186,155)" stroke="rgb(42,186,155)" stroke-width="2.0" /><path d="M 574.585,82.763 L 568.649,91.035 " fill="rgb(42,186,155)" stroke="rgb(42,186,155)" stroke-width="2.0" /><path d="M 553.153,94.643 " fill="rgb(173,87,46)" stroke="rgb(173,87,46)" stroke-width="2.0" /><path d="M 553.153,94.643 L 560.812,94.461 " fill="rgb(173,87,46)" stroke="rgb(173,87,46)" stroke-width="2.0" /><path d="M 560.812,94.461 L 570.638,92.556 " fill="rgb(173,87,46)" stroke="rgb(173,87,46)" stroke-width="2.0" /><path d="M 580.402,91.198 " fill="rgb(166,116,97)" stroke="rgb(166,116,97)" stroke-width="2.0" /><path d="M 580.402,91.198 L 587.67,91.074 " fill="rgb(166,116,97)" stroke="rgb(166,116,97)" stroke-width="2.0" /><path d="M 587.67,91.074 L 593.67,91.478 " fill="rgb(166,116,97)" stroke="rgb(166,116,97)" stroke-width="2.0" /><path d="M 550.328,105.11 " fill="rgb(29,225,100)" stroke="rgb(29,225,100)" stroke-width="2.0" /><path d="M 550.328,105.11 L 556.585,104.809 " fill="rgb(29,225,100)" stroke="rgb(29,225,100)" stroke-width="2.0" /><path d="M 556.585,104.809 L 566.162,103.931 " fill="rgb(29,225,100)" stroke="rgb(29,225,100)" stroke-width="2.0" /><path d="M 566.162,103.931 L 576.721,102.709 " fill="rgb(29,225,100)" stroke="rgb(29,225,100)" stroke-width="2.0" /><path d="M 576.721,102.709 L 587.398,101.671 " fill="rgb(29,225,100)" stroke="rgb(29,225,100)" stroke-width="2.0" /><path d="M 587.398,101.671 L 593.435,101.927 " fill="rgb(29,225,100)" stroke="rgb(29,225,100)" stroke-width="2.0" /><path d="M 549.673,113.642 " fill="rgb(210,143,218)" stroke="rgb(210,143,218)" stroke-width="2.0" /><path d="M 549.673,113.642 L 556.459,113.814 " fill="rgb(210,143,218)" stroke="rgb(210,143,218)" stroke-width="2.0" /><path d="M 556.459,113.814 L 566.917,112.857 " fill="rgb(210,143,218)" stroke="rgb(210,143,218)" stroke-width="2.0" /><path d="M 566.917,112.857 L 578.306,112.243 " fill="rgb(210,143,218)" stroke="rgb(210,143,218)" stroke-width="2.0" /><path d="M 578.306,112.243 L 588.216,111.683 " fill="rgb(210,143,218)" stroke="rgb(210,143,218)" stroke-width="2.0" /><path d="M 588.216,111.683 L 594.787,112.232 " fill="rgb(210,143,218)" stroke="rgb(210,143,218)" stroke-width="2.0" /><path d="M 575.423,103.568 " fill="rgb(191,2,72)" stroke="rgb(191,2,72)" stroke-width="2.0" /><path d="M 575.423,103.568 L 575.827,106.17 " fill="rgb(191,2,72)" stroke="rgb(191,2,72)" stroke-width="2.0" /><path d="M 575.827,106.17 L 575.806,112.277 " fill="rgb(191,2,72)" stroke="rgb(191,2,72)" stroke-width="2.0" /><path d="M 575.806,112.277 L 575.79,123.394 " fill="rgb(191,2,72)" stroke="rgb(191,2,72)" stroke-width="2.0" /><path d="M 575.79,123.394 L 575.656,133.483 " fill="rgb(191,2,72)" stroke="rgb(191,2,72)" stroke-width="2.0" /><path d="M 721.565,54.91 L 697.311,67.4385 " fill="rgb(191,2,72)" stroke="rgb(191,2,72)" stroke-width="2.0" /><path d="M 710.52,64.2725 " fill="rgb(168,80,154)" stroke="rgb(168,80,154)" stroke-width="2.0" /><path d="M 719.735,62.1535 " fill="rgb(112,61,176)" stroke="rgb(112,61,176)" stroke-width="2.0" /><path d="M 719.735,62.154 L 734.604,60.1025 " fill="rgb(112,61,176)" stroke="rgb(112,61,176)" stroke-width="2.0" /><path d="M 734.604,60.103 L 747.884,59.0275 " fill="rgb(112,61,176)" stroke="rgb(112,61,176)" stroke-width="2.0" /><path d="M 747.884,59.028 L 756.291,59.6075 " fill="rgb(112,61,176)" stroke="rgb(112,61,176)" stroke-width="2.0" /><path d="M 706.115,64.7615 " fill="rgb(115,91,45)" stroke="rgb(115,91,45)" stroke-width="2.0" /><path d="M 706.115,64.761 L 708.191,68.5625 " fill="rgb(115,91,45)" stroke="rgb(115,91,45)" stroke-width="2.0" /><path d="M 708.191,68.563 L 708.146,78.3105 " fill="rgb(115,91,45)" stroke="rgb(115,91,45)" stroke-width="2.0" /><path d="M 708.146,78.311 L 708.249,91.8175 " fill="rgb(115,91,45)" stroke="rgb(115,91,45)" stroke-width="2.0" /><path d="M 708.249,91.818 L 708.475,105.0895 " fill="rgb(115,91,45)" stroke="rgb(115,91,45)" stroke-width="2.0" /><path d="M 693.751,63.4815 " fill="rgb(208,59,187)" stroke="rgb(208,59,187)" stroke-width="2.0" /><path d="M 696.517,67.7005 " fill="rgb(5,225,59)" stroke="rgb(5,225,59)" stroke-width="2.0" /><path d="M 696.517,67.701 L 695.589,78.2605 " fill="rgb(5,225,59)" stroke="rgb(5,225,59)" stroke-width="2.0" /><path d="M 683.709,98.9995 " fill="rgb(13,118,94)" stroke="rgb(13,118,94)" stroke-width="2.0" /><path d="M 683.709,99.0 L 690.955,99.6355 " fill="rgb(13,118,94)" stroke="rgb(13,118,94)" stroke-width="2.0" /><path d="M 723.285,86.4945 " fill="rgb(26,37,86)" stroke="rgb(26,37,86)" stroke-width="2.0" /><path d="M 723.285,86.495 L 727.003,83.8065 " fill="rgb(26,37,86)" stroke="rgb(26,37,86)" stroke-width="2.0" /><path d="M 73.845,190.091 L 41.276,205.655 " fill="rgb(26,37,86)" stroke="rgb(26,37,86)" stroke-width="2.0" /><path d="M 30.579,206.671 " fill="rgb(44,145,225)" stroke="rgb(44,145,225)" stroke-width="2.0" /><path d="M 30.579,206.671 L 51.656,202.508 " fill="rgb(44,145,225)" stroke="rgb(44,145,225)" stroke-width="2.0" /><path d="M 51.656,202.508 L 73.072,197.849 " fill="rgb(44,145,225)" stroke="rgb(44,145,225)" stroke-width="2.0" /><path d="M 85.244,196.074 " fill="rgb(121,102,207)" stroke="rgb(121,102,207)" stroke-width="2.0" /><path d="M 85.244,196.074 L 93.188,194.935 " fill="rgb(121,102,207)" stroke="rgb(121,102,207)" stroke-width="2.0" /><path d="M 50.338,215.097 " fill="rgb(160,94,215)" stroke="rgb(160,94,215)" stroke-width="2.0" /><path d="M 50.338,215.097 L 58.71,215.276 " fill="rgb(160,94,215)" stroke="rgb(160,94,215)" stroke-width="2.0" /><path d="M 58.71,215.276 L 71.597,213.707 " fill="rgb(160,94,215)" stroke="rgb(160,94,215)" stroke-width="2.0" /><path d="M 50.745,223.753 " fill="rgb(29,117,41)" stroke="rgb(29,117,41)" stroke-width="2.0" /><path d="M 50.745,223.753 L 60.985,223.392 " fill="rgb(29,117,41)" stroke="rgb(29,117,41)" stroke-width="2.0" /><path d="M 60.985,223.392 L 71.85,222.613 " fill="rgb(29,117,41)" stroke="rgb(29,117,41)" stroke-width="2.0" /><path d="M 71.85,222.613 L 79.01,221.804 " fill="rgb(29,117,41)" stroke="rgb(29,117,41)" stroke-width="2.0" /><path d="M 53.834,237.76 " fill="rgb(81,133,183)" stroke="rgb(81,133,183)" stroke-width="2.0" /><path d="M 53.834,237.76 L 61.0,237.916 " fill="rgb(81,133,183)" stroke="rgb(81,133,183)" stroke-width="2.0" /><path d="M 61.0,237.916 L 69.572,236.554 " fill="rgb(81,133,183)" stroke="rgb(81,133,183)" stroke-width="2.0" /><path d="M 69.572,236.554 L 78.074,235.21 " fill="rgb(81,133,183)" stroke="rgb(81,133,183)" stroke-width="2.0" /><path d="M 57.838,245.29 " fill="rgb(164,165,202)" stroke="rgb(164,165,202)" stroke-width="2.0" /><path d="M 57.838,245.29 L 60.401,248.044 " fill="rgb(164,165,202)" stroke="rgb(164,165,202)" stroke-width="2.0" /><path d="M 60.401,248.044 L 68.449,246.767 " fill="rgb(164,165,202)" stroke="rgb(164,165,202)" stroke-width="2.0" /><path d="M 68.449,246.767 L 75.188,245.806 " fill="rgb(164,165,202)" stroke="rgb(164,165,202)" stroke-width="2.0" /><path d="M 55.884,255.68 " fill="rgb(194,34,175)" stroke="rgb(194,34,175)" stroke-width="2.0" /><path d="M 55.884,255.68 L 58.414,259.033 " fill="rgb(194,34,175)" stroke="rgb(194,34,175)" stroke-width="2.0" /><path d="M 58.414,259.033 L 65.288,257.66 " fill="rgb(194,34,175)" stroke="rgb(194,34,175)" stroke-width="2.0" /><path d="M 65.288,257.66 L 70.83,256.434 " fill="rgb(194,34,175)" stroke="rgb(194,34,175)" stroke-width="2.0" /><path d="M 58.206,265.038 " fill="rgb(83,62,181)" stroke="rgb(83,62,181)" stroke-width="2.0" /><path d="M 58.206,265.038 L 62.514,267.572 " fill="rgb(83,62,181)" stroke="rgb(83,62,181)" stroke-width="2.0" /><path d="M 62.514,267.572 L 58.569,274.769 " fill="rgb(83,62,181)" stroke="rgb(83,62,181)" stroke-width="2.0" /><path d="M 58.569,274.769 L 55.192,281.244 " fill="rgb(83,62,181)" stroke="rgb(83,62,181)" stroke-width="2.0" /><path d="M 75.924,254.198 " fill="rgb(108,110,89)" stroke="rgb(108,110,89)" stroke-width="2.0" /><path d="M 75.924,254.198 L 78.067,256.105 " fill="rgb(108,110,89)" stroke="rgb(108,110,89)" stroke-width="2.0" /><path d="M 78.067,256.105 L 82.265,258.886 " fill="rgb(108,110,89)" stroke="rgb(108,110,89)" stroke-width="2.0" /><path d="M 82.265,258.886 L 82.256,266.875 " fill="rgb(108,110,89)" stroke="rgb(108,110,89)" stroke-width="2.0" /><path d="M 97.318,224.262 " fill="rgb(83,111,87)" stroke="rgb(83,111,87)" stroke-width="2.0" /><path d="M 97.318,224.262 L 98.843,226.93 " fill="rgb(83,111,87)" stroke="rgb(83,111,87)" stroke-width="2.0" /><path d="M 98.843,226.93 L 98.27,232.825 " fill="rgb(83,111,87)" stroke="rgb(83,111,87)" stroke-width="2.0" /><path d="M 98.27,232.825 L 97.446,237.71 " fill="rgb(83,111,87)" stroke="rgb(83,111,87)" stroke-width="2.0" /><path d="M 115.864,229.78 " fill="rgb(82,66,202)" stroke="rgb(82,66,202)" stroke-width="2.0" /><path d="M 115.864,229.78 L 115.821,230.59 " fill="rgb(82,66,202)" stroke="rgb(82,66,202)" stroke-width="2.0" /><path d="M 115.821,230.59 L 111.394,234.879 " fill="rgb(82,66,202)" stroke="rgb(82,66,202)" stroke-width="2.0" /><path d="M 111.394,234.879 L 107.333,240.631 " fill="rgb(82,66,202)" stroke="rgb(82,66,202)" stroke-width="2.0" /><path d="M 79.733,243.296 " fill="rgb(120,224,57)" stroke="rgb(120,224,57)" stroke-width="2.0" /><path d="M 79.733,243.296 L 84.243,244.076 " fill="rgb(120,224,57)" stroke="rgb(120,224,57)" stroke-width="2.0" /><path d="M 84.243,244.076 L 94.453,243.413 " fill="rgb(120,224,57)" stroke="rgb(120,224,57)" stroke-width="2.0" /><path d="M 94.453,243.413 L 107.375,242.406 " fill="rgb(120,224,57)" stroke="rgb(120,224,57)" stroke-width="2.0" /><path d="M 107.375,242.406 L 118.348,241.41 " fill="rgb(120,224,57)" stroke="rgb(120,224,57)" stroke-width="2.0" /><path d="M 118.348,241.41 L 124.902,241.889 " fill="rgb(120,224,57)" stroke="rgb(120,224,57)" stroke-width="2.0" /><path d="M 80.192,257.71 " fill="rgb(101,192,98)" stroke="rgb(101,192,98)" stroke-width="2.0" /><path d="M 80.192,257.71 L 87.294,257.694 " fill="rgb(101,192,98)" stroke="rgb(101,192,98)" stroke-width="2.0" /><path d="M 87.294,257.694 L 98.754,257.066 " fill="rgb(101,192,98)" stroke="rgb(101,192,98)" stroke-width="2.0" /><path d="M 98.754,257.066 L 110.624,256.572 " fill="rgb(101,192,98)" stroke="rgb(101,192,98)" stroke-width="2.0" /><path d="M 110.624,256.572 L 122.0,256.067 " fill="rgb(101,192,98)" stroke="rgb(101,192,98)" stroke-width="2.0" /><path d="M 122.0,256.067 L 129.421,256.13 " fill="rgb(101,192,98)" stroke="rgb(101,192,98)" stroke-width="2.0" /><path d="M 97.744,258.495 " fill="rgb(56,118,180)" stroke="rgb(56,118,180)" stroke-width="2.0" /><path d="M 97.744,258.495 L 98.761,261.216 " fill="rgb(56,118,180)" stroke="rgb(56,118,180)" stroke-width="2.0" /><path d="M 98.761,261.216 L 98.805,269.026 " fill="rgb(56,118,180)" stroke="rgb(56,118,180)" stroke-width="2.0" /><path d="M 98.805,269.026 L 98.864,278.871 " fill="rgb(56,118,180)" stroke="rgb(56,118,180)" stroke-width="2.0" /><path d="M 98.864,278.871 L 98.828,282.285 " fill="rgb(56,118,180)" stroke="rgb(56,118,180)" stroke-width="2.0" /><path d="M 81.59,259.795 " fill="rgb(151,111,82)" stroke="rgb(151,111,82)" stroke-width="2.0" /><path d="M 81.59,259.795 L 83.745,263.454 " fill="rgb(151,111,82)" stroke="rgb(151,111,82)" stroke-width="2.0" /><path d="M 83.745,263.454 L 86.876,266.894 " fill="rgb(151,111,82)" stroke="rgb(151,111,82)" stroke-width="2.0" /><path d="M 71.121,283.272 " fill="rgb(48,18,155)" stroke="rgb(48,18,155)" stroke-width="2.0" /><path d="M 71.121,283.272 L 75.798,281.483 " fill="rgb(48,18,155)" stroke="rgb(48,18,155)" stroke-width="2.0" /><path d="M 75.798,281.483 L 81.358,277.912 " fill="rgb(48,18,155)" stroke="rgb(48,18,155)" stroke-width="2.0" /><path d="M 81.358,277.912 L 87.845,270.97 " fill="rgb(48,18,155)" stroke="rgb(48,18,155)" stroke-width="2.0" /><path d="M 112.924,252.757 " fill="rgb(63,127,216)" stroke="rgb(63,127,216)" stroke-width="2.0" /><path d="M 112.924,252.757 L 113.008,255.063 " fill="rgb(63,127,216)" stroke="rgb(63,127,216)" stroke-width="2.0" /><path d="M 113.008,255.063 L 108.255,260.863 " fill="rgb(63,127,216)" stroke="rgb(63,127,216)" stroke-width="2.0" /><path d="M 108.255,260.863 L 98.546,266.325 " fill="rgb(63,127,216)" stroke="rgb(63,127,216)" stroke-width="2.0" /><path d="M 94.691,271.467 " fill="rgb(49,154,31)" stroke="rgb(49,154,31)" stroke-width="2.0" /><path d="M 94.691,271.467 L 98.632,274.14 " fill="rgb(49,154,31)" stroke="rgb(49,154,31)" stroke-width="2.0" /><path d="M 98.632,274.14 L 106.166,280.929 " fill="rgb(49,154,31)" stroke="rgb(49,154,31)" stroke-width="2.0" /><path d="M 106.166,280.929 L 108.456,289.909 " fill="rgb(49,154,31)" stroke="rgb(49,154,31)" stroke-width="2.0" /><path d="M 214.57,202.269 L 219.033,203.5525 " fill="rgb(49,154,31)" stroke="rgb(49,154,31)" stroke-width="2.0" /><path d="M 219.033,203.552 L 201.603,215.4135 " fill="rgb(49,154,31)" stroke="rgb(49,154,31)" stroke-width="2.0" /><path d="M 212.306,213.8835 " fill="rgb(69,111,29)" stroke="rgb(69,111,29)" stroke-width="2.0" /><path d="M 221.749,211.5825 " fill="rgb(211,150,169)" stroke="rgb(211,150,169)" stroke-width="2.0" /><path d="M 221.749,211.582 L 232.316,209.7355 " fill="rgb(211,150,169)" stroke="rgb(211,150,169)" stroke-width="2.0" /><path d="M 232.316,209.735 L 240.408,208.9355 " fill="rgb(211,150,169)" stroke="rgb(211,150,169)" stroke-width="2.0" /><path d="M 204.171,221.7565 " fill="rgb(68,28,177)" stroke="rgb(68,28,177)" stroke-width="2.0" /><path d="M 204.171,221.756 L 205.937,225.2965 " fill="rgb(68,28,177)" stroke="rgb(68,28,177)" stroke-width="2.0" /><path d="M 205.937,225.296 L 215.5,224.7625 " fill="rgb(68,28,177)" stroke="rgb(68,28,177)" stroke-width="2.0" /><path d="M 246.809,215.4895 " fill="rgb(114,79,68)" stroke="rgb(114,79,68)" stroke-width="2.0" /><path d="M 246.809,215.489 L 264.625,215.0415 " fill="rgb(114,79,68)" stroke="rgb(114,79,68)" stroke-width="2.0" /><path d="M 264.625,215.041 L 278.397,214.5465 " fill="rgb(114,79,68)" stroke="rgb(114,79,68)" stroke-width="2.0" /><path d="M 278.397,214.546 L 269.498,223.3175 " fill="rgb(114,79,68)" stroke="rgb(114,79,68)" stroke-width="2.0" /><path d="M 227.11,226.7525 " fill="rgb(12,5,183)" stroke="rgb(12,5,183)" stroke-width="2.0" /><path d="M 227.11,226.752 L 228.874,231.5645 " fill="rgb(12,5,183)" stroke="rgb(12,5,183)" stroke-width="2.0" /><path d="M 228.874,231.564 L 228.968,244.2985 " fill="rgb(12,5,183)" stroke="rgb(12,5,183)" stroke-width="2.0" /><path d="M 228.968,244.298 L 228.996,261.0985 " fill="rgb(12,5,183)" stroke="rgb(12,5,183)" stroke-width="2.0" /><path d="M 228.996,261.098 L 229.023,277.7305 " fill="rgb(12,5,183)" stroke="rgb(12,5,183)" stroke-width="2.0" /><path d="M 209.758,230.9055 " fill="rgb(38,93,168)" stroke="rgb(38,93,168)" stroke-width="2.0" /><path d="M 209.758,230.905 L 214.411,233.5355 " fill="rgb(38,93,168)" stroke="rgb(38,93,168)" stroke-width="2.0" /><path d="M 214.411,233.535 L 217.738,238.8525 " fill="rgb(38,93,168)" stroke="rgb(38,93,168)" stroke-width="2.0" /><path d="M 207.023,260.1825 " fill="rgb(99,171,148)" stroke="rgb(99,171,148)" stroke-width="2.0" /><path d="M 207.023,260.182 L 211.823,259.3375 " fill="rgb(99,171,148)" stroke="rgb(99,171,148)" stroke-width="2.0" /><path d="M 211.823,259.337 L 219.548,253.5845 " fill="rgb(99,171,148)" stroke="rgb(99,171,148)" stroke-width="2.0" /><path d="M 219.548,253.584 L 228.117,247.7315 " fill="rgb(99,171,148)" stroke="rgb(99,171,148)" stroke-width="2.0" /><path d="M 256.503,219.2485 " fill="rgb(156,198,61)" stroke="rgb(156,198,61)" stroke-width="2.0" /><path d="M 256.503,219.248 L 255.221,222.6395 " fill="rgb(156,198,61)" stroke="rgb(156,198,61)" stroke-width="2.0" /><path d="M 255.221,222.639 L 250.088,229.8955 " fill="rgb(156,198,61)" stroke="rgb(156,198,61)" stroke-width="2.0" /><path d="M 250.088,229.895 L 244.197,236.5205 " fill="rgb(156,198,61)" stroke="rgb(156,198,61)" stroke-width="2.0" /><path d="M 242.611,242.8325 " fill="rgb(69,166,19)" stroke="rgb(69,166,19)" stroke-width="2.0" /><path d="M 242.611,242.832 L 243.739,249.7295 " fill="rgb(69,166,19)" stroke="rgb(69,166,19)" stroke-width="2.0" /><path d="M 258.794,240.8195 " fill="rgb(80,171,157)" stroke="rgb(80,171,157)" stroke-width="2.0" /><path d="M 258.794,240.819 L 262.177,242.6095 " fill="rgb(80,171,157)" stroke="rgb(80,171,157)" stroke-width="2.0" /><path d="M 375.06,193.762 L 380.877,207.471 " fill="rgb(80,171,157)" stroke="rgb(80,171,157)" stroke-width="2.0" /><path d="M 372.769,221.004 " fill="rgb(131,17,201)" stroke="rgb(131,17,201)" stroke-width="2.0" /><path d="M 372.769,221.004 L 383.652,220.905 " fill="rgb(131,17,201)" stroke="rgb(131,17,201)" stroke-width="2.0" /><path d="M 403.249,202.978 " fill="rgb(134,110,222)" stroke="rgb(134,110,222)" stroke-width="2.0" /><path d="M 403.249,202.978 L 405.541,205.46 " fill="rgb(134,110,222)" stroke="rgb(134,110,222)" stroke-width="2.0" /><path d="M 405.541,205.46 L 397.901,217.121 " fill="rgb(134,110,222)" stroke="rgb(134,110,222)" stroke-width="2.0" /><path d="M 397.901,217.121 L 391.033,226.934 " fill="rgb(134,110,222)" stroke="rgb(134,110,222)" stroke-width="2.0" /><path d="M 391.033,226.934 L 381.304,240.179 " fill="rgb(134,110,222)" stroke="rgb(134,110,222)" stroke-width="2.0" /><path d="M 381.304,240.179 L 368.072,250.183 " fill="rgb(134,110,222)" stroke="rgb(134,110,222)" stroke-width="2.0" /><path d="M 382.155,232.548 " fill="rgb(88,165,205)" stroke="rgb(88,165,205)" stroke-width="2.0" /><path d="M 382.155,232.548 L 383.199,236.372 " fill="rgb(88,165,205)" stroke="rgb(88,165,205)" stroke-width="2.0" /><path d="M 383.199,236.372 L 383.232,248.373 " fill="rgb(88,165,205)" stroke="rgb(88,165,205)" stroke-width="2.0" /><path d="M 383.232,248.373 L 383.219,262.193 " fill="rgb(88,165,205)" stroke="rgb(88,165,205)" stroke-width="2.0" /><path d="M 383.219,262.193 L 383.22,277.706 " fill="rgb(88,165,205)" stroke="rgb(88,165,205)" stroke-width="2.0" /><path d="M 383.22,277.706 L 383.349,286.238 " fill="rgb(88,165,205)" stroke="rgb(88,165,205)" stroke-width="2.0" /><path d="M 386.782,241.33 " fill="rgb(107,131,191)" stroke="rgb(107,131,191)" stroke-width="2.0" /><path d="M 386.782,241.33 L 392.223,245.654 " fill="rgb(107,131,191)" stroke="rgb(107,131,191)" stroke-width="2.0" /><path d="M 392.223,245.654 L 396.504,251.503 " fill="rgb(107,131,191)" stroke="rgb(107,131,191)" stroke-width="2.0" /><path d="M 406.861,196.281 " fill="rgb(33,104,176)" stroke="rgb(33,104,176)" stroke-width="2.0" /><path d="M 406.861,196.281 L 408.525,200.412 " fill="rgb(33,104,176)" stroke="rgb(33,104,176)" stroke-width="2.0" /><path d="M 408.525,200.412 L 417.203,199.035 " fill="rgb(33,104,176)" stroke="rgb(33,104,176)" stroke-width="2.0" /><path d="M 397.398,218.135 " fill="rgb(197,119,188)" stroke="rgb(197,119,188)" stroke-width="2.0" /><path d="M 397.398,218.135 L 405.06,217.518 " fill="rgb(197,119,188)" stroke="rgb(197,119,188)" stroke-width="2.0" /><path d="M 405.06,217.518 L 410.53,215.578 " fill="rgb(197,119,188)" stroke="rgb(197,119,188)" stroke-width="2.0" /><path d="M 410.53,215.578 L 419.202,213.696 " fill="rgb(197,119,188)" stroke="rgb(197,119,188)" stroke-width="2.0" /><path d="M 419.202,213.696 L 426.451,212.646 " fill="rgb(197,119,188)" stroke="rgb(197,119,188)" stroke-width="2.0" /><path d="M 426.451,212.646 L 431.928,212.433 " fill="rgb(197,119,188)" stroke="rgb(197,119,188)" stroke-width="2.0" /><path d="M 414.544,216.103 " fill="rgb(200,111,95)" stroke="rgb(200,111,95)" stroke-width="2.0" /><path d="M 414.544,216.103 L 415.738,221.269 " fill="rgb(200,111,95)" stroke="rgb(200,111,95)" stroke-width="2.0" /><path d="M 415.738,221.269 L 415.89,234.44 " fill="rgb(200,111,95)" stroke="rgb(200,111,95)" stroke-width="2.0" /><path d="M 415.89,234.44 L 415.883,249.251 " fill="rgb(200,111,95)" stroke="rgb(200,111,95)" stroke-width="2.0" /><path d="M 415.883,249.251 L 415.967,263.156 " fill="rgb(200,111,95)" stroke="rgb(200,111,95)" stroke-width="2.0" /><path d="M 405.183,219.35 " fill="rgb(144,118,85)" stroke="rgb(144,118,85)" stroke-width="2.0" /><path d="M 405.183,219.35 L 406.085,223.237 " fill="rgb(144,118,85)" stroke="rgb(144,118,85)" stroke-width="2.0" /><path d="M 406.085,223.237 L 405.599,233.136 " fill="rgb(144,118,85)" stroke="rgb(144,118,85)" stroke-width="2.0" /><path d="M 394.451,252.267 " fill="rgb(178,151,167)" stroke="rgb(178,151,167)" stroke-width="2.0" /><path d="M 394.451,252.267 L 397.299,252.287 " fill="rgb(178,151,167)" stroke="rgb(178,151,167)" stroke-width="2.0" /><path d="M 397.299,252.287 L 402.367,251.573 " fill="rgb(178,151,167)" stroke="rgb(178,151,167)" stroke-width="2.0" /><path d="M 402.367,251.573 L 406.705,247.058 " fill="rgb(178,151,167)" stroke="rgb(178,151,167)" stroke-width="2.0" /><path d="M 423.017,224.714 " fill="rgb(164,11,164)" stroke="rgb(164,11,164)" stroke-width="2.0" /><path d="M 423.017,224.714 L 423.357,225.508 " fill="rgb(164,11,164)" stroke="rgb(164,11,164)" stroke-width="2.0" /><path d="M 423.357,225.508 L 419.133,232.547 " fill="rgb(164,11,164)" stroke="rgb(164,11,164)" stroke-width="2.0" /><path d="M 415.243,240.511 " fill="rgb(23,202,140)" stroke="rgb(23,202,140)" stroke-width="2.0" /><path d="M 415.243,240.511 L 414.982,244.447 " fill="rgb(23,202,140)" stroke="rgb(23,202,140)" stroke-width="2.0" /><path d="M 429.7,236.316 " fill="rgb(4,147,82)" stroke="rgb(4,147,82)" stroke-width="2.0" /><path d="M 429.7,236.316 L 430.49,239.243 " fill="rgb(4,147,82)" stroke="rgb(4,147,82)" stroke-width="2.0" /><path d="M 577.133,212.17 L 553.844,227.838 " fill="rgb(4,147,82)" stroke="rgb(4,147,82)" stroke-width="2.0" /><path d="M 553.844,227.838 L 562.353,222.271 " fill="rgb(4,147,82)" stroke="rgb(4,147,82)" stroke-width="2.0" /><path d="M 569.224,221.189 " fill="rgb(6,43,6)" stroke="rgb(6,43,6)" stroke-width="2.0" /><path d="M 569.224,221.189 L 578.229,220.437 " fill="rgb(6,43,6)" stroke="rgb(6,43,6)" stroke-width="2.0" /><path d="M 549.432,236.754 " fill="rgb(3,179,28)" stroke="rgb(3,179,28)" stroke-width="2.0" /><path d="M 549.432,236.754 L 557.356,235.821 " fill="rgb(3,179,28)" stroke="rgb(3,179,28)" stroke-width="2.0" /><path d="M 557.356,235.821 L 567.725,234.529 " fill="rgb(3,179,28)" stroke="rgb(3,179,28)" stroke-width="2.0" /><path d="M 567.725,234.529 L 578.22,233.221 " fill="rgb(3,179,28)" stroke="rgb(3,179,28)" stroke-width="2.0" /><path d="M 554.64,245.392 " fill="rgb(3,196,33)" stroke="rgb(3,196,33)" stroke-width="2.0" /><path d="M 554.64,245.392 L 555.673,248.128 " fill="rgb(3,196,33)" stroke="rgb(3,196,33)" stroke-width="2.0" /><path d="M 555.673,248.128 L 549.74,256.603 " fill="rgb(3,196,33)" stroke="rgb(3,196,33)" stroke-width="2.0" /><path d="M 549.74,256.603 L 541.771,267.83 " fill="rgb(3,196,33)" stroke="rgb(3,196,33)" stroke-width="2.0" /><path d="M 573.118,250.072 " fill="rgb(87,46,21)" stroke="rgb(87,46,21)" stroke-width="2.0" /><path d="M 573.118,250.072 L 574.661,250.686 " fill="rgb(87,46,21)" stroke="rgb(87,46,21)" stroke-width="2.0" /><path d="M 731.539,241.889 L 704.669,206.982 " fill="rgb(87,46,21)" stroke="rgb(87,46,21)" stroke-width="2.0" /><path d="M 707.362,216.956 " fill="rgb(12,46,9)" stroke="rgb(12,46,9)" stroke-width="2.0" /><path d="M 707.362,216.956 L 710.537,225.826 " fill="rgb(12,46,9)" stroke="rgb(12,46,9)" stroke-width="2.0" /><path d="M 710.537,225.826 L 718.095,223.473 " fill="rgb(12,46,9)" stroke="rgb(12,46,9)" stroke-width="2.0" /><path d="M 724.39,222.183 " fill="rgb(75,101,87)" stroke="rgb(75,101,87)" stroke-width="2.0" /><path d="M 724.39,222.183 L 732.384,222.151 " fill="rgb(75,101,87)" stroke="rgb(75,101,87)" stroke-width="2.0" /><path d="M 706.023,226.232 " fill="rgb(156,76,119)" stroke="rgb(156,76,119)" stroke-width="2.0" /><path d="M 706.023,226.232 L 714.006,226.127 " fill="rgb(156,76,119)" stroke="rgb(156,76,119)" stroke-width="2.0" /><path d="M 714.006,226.127 L 724.706,225.035 " fill="rgb(156,76,119)" stroke="rgb(156,76,119)" stroke-width="2.0" /><path d="M 699.781,238.283 " fill="rgb(37,74,103)" stroke="rgb(37,74,103)" stroke-width="2.0" /><path d="M 699.781,238.283 L 707.907,238.607 " fill="rgb(37,74,103)" stroke="rgb(37,74,103)" stroke-width="2.0" /><path d="M 707.907,238.607 L 719.832,236.491 " fill="rgb(37,74,103)" stroke="rgb(37,74,103)" stroke-width="2.0" /><path d="M 719.832,236.491 L 729.614,235.009 " fill="rgb(37,74,103)" stroke="rgb(37,74,103)" stroke-width="2.0" /><path d="M 710.704,246.487 " fill="rgb(118,172,13)" stroke="rgb(118,172,13)" stroke-width="2.0" /><path d="M 710.704,246.487 L 706.316,253.778 " fill="rgb(118,172,13)" stroke="rgb(118,172,13)" stroke-width="2.0" /><path d="M 706.316,253.778 L 699.601,259.244 " fill="rgb(118,172,13)" stroke="rgb(118,172,13)" stroke-width="2.0" /><path d="M 699.601,259.244 L 689.696,267.834 " fill="rgb(118,172,13)" stroke="rgb(118,172,13)" stroke-width="2.0" /><path d="M 704.616,254.384 " fill="rgb(84,163,112)" stroke="rgb(84,163,112)" stroke-width="2.0" /><path d="M 704.616,254.384 L 706.902,254.626 " fill="rgb(84,163,112)" stroke="rgb(84,163,112)" stroke-width="2.0" /><path d="M 706.902,254.626 L 710.691,255.949 " fill="rgb(84,163,112)" stroke="rgb(84,163,112)" stroke-width="2.0" /><path d="M 710.691,255.949 L 707.455,265.496 " fill="rgb(84,163,112)" stroke="rgb(84,163,112)" stroke-width="2.0" /><path d="M 734.213,224.133 " fill="rgb(223,7,53)" stroke="rgb(223,7,53)" stroke-width="2.0" /><path d="M 734.213,224.133 L 734.011,228.315 " fill="rgb(223,7,53)" stroke="rgb(223,7,53)" stroke-width="2.0" /><path d="M 734.011,228.315 L 732.223,234.727 " fill="rgb(223,7,53)" stroke="rgb(223,7,53)" stroke-width="2.0" /><path d="M 732.223,234.727 L 730.86,241.929 " fill="rgb(223,7,53)" stroke="rgb(223,7,53)" stroke-width="2.0" /><path d="M 730.86,241.929 L 727.979,249.668 " fill="rgb(223,7,53)" stroke="rgb(223,7,53)" stroke-width="2.0" /><path d="M 738.131,240.23 " fill="rgb(175,180,8)" stroke="rgb(175,180,8)" stroke-width="2.0" /><path d="M 738.131,240.23 L 743.534,239.97 " fill="rgb(175,180,8)" stroke="rgb(175,180,8)" stroke-width="2.0" /><path d="M 743.534,239.97 L 750.304,239.08 " fill="rgb(175,180,8)" stroke="rgb(175,180,8)" stroke-width="2.0" /><path d="M 708.813,250.476 " fill="rgb(7,200,143)" stroke="rgb(7,200,143)" stroke-width="2.0" /><path d="M 708.813,250.476 L 716.866,250.926 " fill="rgb(7,200,143)" stroke="rgb(7,200,143)" stroke-width="2.0" /><path d="M 716.866,250.926 L 727.402,249.721 " fill="rgb(7,200,143)" stroke="rgb(7,200,143)" stroke-width="2.0" /><path d="M 727.402,249.721 L 738.609,249.167 " fill="rgb(7,200,143)" stroke="rgb(7,200,143)" stroke-width="2.0" /><path d="M 709.976,255.907 " fill="rgb(26,178,45)" stroke="rgb(26,178,45)" stroke-width="2.0" /><path d="M 709.976,255.907 L 717.871,255.804 " fill="rgb(26,178,45)" stroke="rgb(26,178,45)" stroke-width="2.0" /><path d="M 717.871,255.804 L 728.196,255.64 " fill="rgb(26,178,45)" stroke="rgb(26,178,45)" stroke-width="2.0" /><path d="M 728.196,255.64 L 736.583,255.363 " fill="rgb(26,178,45)" stroke="rgb(26,178,45)" stroke-width="2.0" /><path d="M 711.713,264.02 " fill="rgb(181,45,196)" stroke="rgb(181,45,196)" stroke-width="2.0" /><path d="M 711.713,264.02 L 710.002,265.452 " fill="rgb(181,45,196)" stroke="rgb(181,45,196)" stroke-width="2.0" /><path d="M 710.002,265.452 L 706.09,269.837 " fill="rgb(181,45,196)" stroke="rgb(181,45,196)" stroke-width="2.0" /><path d="M 706.09,269.837 L 700.867,273.018 " fill="rgb(181,45,196)" stroke="rgb(181,45,196)" stroke-width="2.0" /><path d="M 724.913,261.638 " fill="rgb(44,133,110)" stroke="rgb(44,133,110)" stroke-width="2.0" /><path d="M 724.913,261.638 L 728.537,259.937 " fill="rgb(44,133,110)" stroke="rgb(44,133,110)" stroke-width="2.0" /></svg>