<?xml version="1.0" encoding="utf-8" ?>
<svg baseProfile="full" height="960.0" version="1.1" width="800" xmlns="http://www.w3.org/2000/svg" xmlns:ev="http://www.w3.org/2001/xml-events" xmlns:xlink="http://www.w3.org/1999/xlink"><defs /><rect fill="white" height="960.0" width="800" x="0" y="0" /><path d="M 52.594,66.198 L 39.011,90.1165 " fill="rgb(126,29,61)" stroke="rgb(126,29,61)" stroke-width="2.0" /><path d="M 39.011,90.117 L 36.107,93.8015 " fill="rgb(126,29,61)" stroke="rgb(126,29,61)" stroke-width="2.0" /><path d="M 52.075,87.0535 " fill="rgb(28,179,200)" stroke="rgb(28,179,200)" stroke-width="2.0" /><path d="M 68.755,76.7935 " fill="rgb(78,116,13)" stroke="rgb(78,116,13)" stroke-width="2.0" /><path d="M 75.859,74.6045 " fill="rgb(10,131,151)" stroke="rgb(10,131,151)" stroke-width="2.0" /><path d="M 75.859,74.605 L 76.863,74.6165 " fill="rgb(10,131,151)" stroke="rgb(10,131,151)" stroke-width="2.0" /><path d="M 76.863,74.617 L 82.755,76.2295 " fill="rgb(10,131,151)" stroke="rgb(10,131,151)" stroke-width="2.0" /><path d="M 82.755,76.23 L 89.676,75.9375 " fill="rgb(10,131,151)" stroke="rgb(10,131,151)" stroke-width="2.0" /><path d="M 89.676,75.938 L 94.364,77.0225 " fill="rgb(10,131,151)" stroke="rgb(10,131,151)" stroke-width="2.0" /><path d="M 94.364,77.022 L 101.929,77.7095 " fill="rgb(10,131,151)" stroke="rgb(10,131,151)" stroke-width="2.0" /><path d="M 108.261,77.4535 " fill="rgb(107,187,20)" stroke="rgb(107,187,20)" stroke-width="2.0" /><path d="M 123.893,76.2265 " fill="rgb(144,176,174)" stroke="rgb(144,176,174)" stroke-width="2.0" /><path d="M 212.988,82.398 L 203.356,100.1985 " fill="rgb(144,176,174)" stroke="rgb(144,176,174)" stroke-width="2.0" /><path d="M 203.356,100.199 L 188.812,81.6525 " fill="rgb(144,176,174)" stroke="rgb(144,176,174)" stroke-width="2.0" /><path d="M 188.812,81.653 L 202.367,67.3355 " fill="rgb(144,176,174)" stroke="rgb(144,176,174)" stroke-width="2.0" /><path d="M 216.624,63.4635 " fill="rgb(78,131,83)" stroke="rgb(78,131,83)" stroke-width="2.0" /><path d="M 216.624,63.463 L 223.952,61.1185 " fill="rgb(78,131,83)" stroke="rgb(78,131,83)" stroke-width="2.0" /><path d="M 234.792,59.8015 " fill="rgb(93,48,203)" stroke="rgb(93,48,203)" stroke-width="2.0" /><path d="M 238.242,62.0625 " fill="rgb(217,114,193)" stroke="rgb(217,114,193)" stroke-width="2.0" /><path d="M 243.703,61.6775 " fill="rgb(202,67,141)" stroke="rgb(202,67,141)" stroke-width="2.0" /><path d="M 241.724,62.0925 " fill="rgb(40,222,125)" stroke="rgb(40,222,125)" stroke-width="2.0" /><path d="M 248.701,62.3695 " fill="rgb(179,131,193)" stroke="rgb(179,131,193)" stroke-width="2.0" /><path d="M 251.799,62.5335 " fill="rgb(74,210,88)" stroke="rgb(74,210,88)" stroke-width="2.0" /><path d="M 249.591,63.3115 " fill="rgb(178,209,15)" stroke="rgb(178,209,15)" stroke-width="2.0" /><path d="M 249.591,63.312 L 261.561,62.8815 " fill="rgb(178,209,15)" stroke="rgb(178,209,15)" stroke-width="2.0" /><path d="M 261.561,62.882 L 268.537,62.5185 " fill="rgb(178,209,15)" stroke="rgb(178,209,15)" stroke-width="2.0" /><path d="M 274.803,61.9405 " fill="rgb(187,136,159)" stroke="rgb(187,136,159)" stroke-width="2.0" /><path d="M 282.696,61.0765 " fill="rgb(44,110,185)" stroke="rgb(44,110,185)" stroke-width="2.0" /><path d="M 291.188,60.6585 " fill="rgb(82,3,4)" stroke="rgb(82,3,4)" stroke-width="2.0" /><path d="M 352.977,102.662 L 370.374,95.278 " fill="rgb(82,3,4)" stroke="rgb(82,3,4)" stroke-width="2.0" /><path d="M 370.374,95.278 L 384.113,77.902 " fill="rgb(82,3,4)" stroke="rgb(82,3,4)" stroke-width="2.0" /><path d="M 393.496,70.295 " fill="rgb(200,133,76)" stroke="rgb(200,133,76)" stroke-width="2.0" /><path d="M 393.496,70.295 L 407.248,62.244 " fill="rgb(200,133,76)" stroke="rgb(200,133,76)" stroke-width="2.0" /><path d="M 414.405,58.658 " fill="rgb(204,100,35)" stroke="rgb(204,100,35)" stroke-width="2.0" /><path d="M 414.405,58.658 L 425.123,57.338 " fill="rgb(204,100,35)" stroke="rgb(204,100,35)" stroke-width="2.0" /><path d="M 425.123,57.338 L 432.575,57.895 " fill="rgb(204,100,35)" stroke="rgb(204,100,35)" stroke-width="2.0" /><path d="M 438.275,57.563 " fill="rgb(104,206,165)" stroke="rgb(104,206,165)" stroke-width="2.0" /><path d="M 447.023,57.691 " fill="rgb(142,111,151)" stroke="rgb(142,111,151)" stroke-width="2.0" /><path d="M 519.521,99.609 L 514.682,90.317 " fill="rgb(142,111,151)" stroke="rgb(142,111,151)" stroke-width="2.0" /><path d="M 527.326,73.928 " fill="rgb(204,87,199)" stroke="rgb(204,87,199)" stroke-width="2.0" /><path d="M 527.326,73.928 L 542.156,66.103 " fill="rgb(204,87,199)" stroke="rgb(204,87,199)" stroke-width="2.0" /><path d="M 552.129,63.086 " fill="rgb(188,150,30)" stroke="rgb(188,150,30)" stroke-width="2.0" /><path d="M 556.584,63.046 " fill="rgb(47,5,186)" stroke="rgb(47,5,186)" stroke-width="2.0" /><path d="M 566.867,60.391 " fill="rgb(156,158,43)" stroke="rgb(156,158,43)" stroke-width="2.0" /><path d="M 566.867,60.391 L 574.618,60.555 " fill="rgb(156,158,43)" stroke="rgb(156,158,43)" stroke-width="2.0" /><path d="M 583.221,60.86 " fill="rgb(17,211,67)" stroke="rgb(17,211,67)" stroke-width="2.0" /><path d="M 587.529,61.901 " fill="rgb(35,222,121)" stroke="rgb(35,222,121)" stroke-width="2.0" /><path d="M 587.529,61.901 L 594.32,62.287 " fill="rgb(35,222,121)" stroke="rgb(35,222,121)" stroke-width="2.0" /><path d="M 605.318,61.723 " fill="rgb(140,198,34)" stroke="rgb(140,198,34)" stroke-width="2.0" /><path d="M 682.505,104.645 L 696.8255,95.487 " fill="rgb(140,198,34)" stroke="rgb(140,198,34)" stroke-width="2.0" /><path d="M 692.0955,73.719 " fill="rgb(160,215,185)" stroke="rgb(160,215,185)" stroke-width="2.0" /><path d="M 711.6385,59.538 " fill="rgb(168,171,59)" stroke="rgb(168,171,59)" stroke-width="2.0" /><path d="M 719.4315,59.783 " fill="rgb(4,222,221)" stroke="rgb(4,222,221)" stroke-width="2.0" /><path d="M 719.432,59.783 L 731.0375,58.081 " fill="rgb(4,222,221)" stroke="rgb(4,222,221)" stroke-width="2.0" /><path d="M 737.1895,56.205 " fill="rgb(200,214,95)" stroke="rgb(200,214,95)" stroke-width="2.0" /><path d="M 745.0975,55.378 " fill="rgb(48,28,151)" stroke="rgb(48,28,151)" stroke-width="2.0" /><path d="M 745.098,55.378 L 755.9745,55.355 " fill="rgb(48,28,151)" stroke="rgb(48,28,151)" stroke-width="2.0" /><path d="M 757.4955,55.726 " fill="rgb(154,220,187)" stroke="rgb(154,220,187)" stroke-width="2.0" /><path d="M 38.291,258.11 L 45.3415,266.0005 " fill="rgb(154,220,187)" stroke="rgb(154,220,187)" stroke-width="2.0" /><path d="M 45.341,266.001 L 52.1275,228.0725 " fill="rgb(154,220,187)" stroke="rgb(154,220,187)" stroke-width="2.0" /><path d="M 52.127,228.073 L 65.0475,223.6445 " fill="rgb(154,220,187)" stroke="rgb(154,220,187)" stroke-width="2.0" /><path d="M 75.5595,218.5565 " fill="rgb(72,14,118)" stroke="rgb(72,14,118)" stroke-width="2.0" /><path d="M 81.6265,214.4515 " fill="rgb(108,206,196)" stroke="rgb(108,206,196)" stroke-width="2.0" /><path d="M 85.6645,213.9995 " fill="rgb(85,218,144)" stroke="rgb(85,218,144)" stroke-width="2.0" /><path d="M 85.664,214.0 L 94.9945,214.1345 " fill="rgb(85,218,144)" stroke="rgb(85,218,144)" stroke-width="2.0" /><path d="M 97.6735,215.4815 " fill="rgb(70,187,119)" stroke="rgb(70,187,119)" stroke-width="2.0" /><path d="M 97.673,215.482 L 109.6975,214.1365 " fill="rgb(70,187,119)" stroke="rgb(70,187,119)" stroke-width="2.0" /><path d="M 109.697,214.137 L 118.0355,214.0225 " fill="rgb(70,187,119)" stroke="rgb(70,187,119)" stroke-width="2.0" /><path d="M 118.035,214.023 L 121.7085,214.2415 " fill="rgb(70,187,119)" stroke="rgb(70,187,119)" stroke-width="2.0" /><path d="M 193.293,272.793 L 182.536,252.3965 " fill="rgb(70,187,119)" stroke="rgb(70,187,119)" stroke-width="2.0" /><path d="M 200.948,231.1205 " fill="rgb(16,162,27)" stroke="rgb(16,162,27)" stroke-width="2.0" /><path d="M 216.598,215.5615 " fill="rgb(225,143,157)" stroke="rgb(225,143,157)" stroke-width="2.0" /><path d="M 216.598,215.561 L 228.736,211.1765 " fill="rgb(225,143,157)" stroke="rgb(225,143,157)" stroke-width="2.0" /><path d="M 228.736,211.177 L 233.632,209.4165 " fill="rgb(225,143,157)" stroke="rgb(225,143,157)" stroke-width="2.0" /><path d="M 238.609,207.8975 " fill="rgb(91,222,72)" stroke="rgb(91,222,72)" stroke-width="2.0" /><path d="M 251.382,207.2065 " fill="rgb(59,110,82)" stroke="rgb(59,110,82)" stroke-width="2.0" /><path d="M 258.153,207.5055 " fill="rgb(168,120,129)" stroke="rgb(168,120,129)" stroke-width="2.0" /><path d="M 258.153,207.506 L 264.26,207.9355 " fill="rgb(168,120,129)" stroke="rgb(168,120,129)" stroke-width="2.0" /><path d="M 264.26,207.936 L 272.787,208.7425 " fill="rgb(168,120,129)" stroke="rgb(168,120,129)" stroke-width="2.0" /><path d="M 272.787,208.743 L 279.641,209.3565 " fill="rgb(168,120,129)" stroke="rgb(168,120,129)" stroke-width="2.0" /><path d="M 286.814,208.8405 " fill="rgb(167,225,223)" stroke="rgb(167,225,223)" stroke-width="2.0" /><path d="M 297.464,207.3675 " fill="rgb(146,107,152)" stroke="rgb(146,107,152)" stroke-width="2.0" /><path d="M 399.068,225.251 L 385.904,254.7485 " fill="rgb(146,107,152)" stroke="rgb(146,107,152)" stroke-width="2.0" /><path d="M 373.233,247.2075 " fill="rgb(148,188,181)" stroke="rgb(148,188,181)" stroke-width="2.0" /><path d="M 380.996,249.5975 " fill="rgb(176,213,140)" stroke="rgb(176,213,140)" stroke-width="2.0" /><path d="M 388.264,248.0865 " fill="rgb(104,221,36)" stroke="rgb(104,221,36)" stroke-width="2.0" /><path d="M 401.153,244.8795 " fill="rgb(23,189,84)" stroke="rgb(23,189,84)" stroke-width="2.0" /><path d="M 411.825,245.6635 " fill="rgb(149,12,161)" stroke="rgb(149,12,161)" stroke-width="2.0" /><path d="M 426.767,243.6745 " fill="rgb(33,78,169)" stroke="rgb(33,78,169)" stroke-width="2.0" /><path d="M 538.474,221.199 L 549.97,232.014 " fill="rgb(33,78,169)" stroke="rgb(33,78,169)" stroke-width="2.0" /><path d="M 540.97,258.801 " fill="rgb(5,72,148)" stroke="rgb(5,72,148)" stroke-width="2.0" /><path d="M 554.343,248.01 " fill="rgb(61,5,176)" stroke="rgb(61,5,176)" stroke-width="2.0" /><path d="M 569.291,240.187 " fill="rgb(104,159,154)" stroke="rgb(104,159,154)" stroke-width="2.0" /><path d="M 573.854,237.972 " fill="rgb(100,103,149)" stroke="rgb(100,103,149)" stroke-width="2.0" /><path d="M 581.526,237.673 " fill="rgb(195,128,178)" stroke="rgb(195,128,178)" stroke-width="2.0" /><path d="M 697.111,220.254 L 681.3905,259.7465 " fill="rgb(195,128,178)" stroke="rgb(195,128,178)" stroke-width="2.0" /><path d="M 698.9085,250.2905 " fill="rgb(196,135,4)" stroke="rgb(196,135,4)" stroke-width="2.0" /><path d="M 710.2205,250.0015 " fill="rgb(162,223,126)" stroke="rgb(162,223,126)" stroke-width="2.0" /><path d="M 710.221,250.002 L 728.5075,247.0255 " fill="rgb(162,223,126)" stroke="rgb(162,223,126)" stroke-width="2.0" /><path d="M 738.7515,245.0315 " fill="rgb(143,99,196)" stroke="rgb(143,99,196)" stroke-width="2.0" /><path d="M 751.0295,242.6865 " fill="rgb(180,140,163)" stroke="rgb(180,140,163)" stroke-width="2.0" /><path d="M 751.03,242.687 L 758.6095,243.6035 " fill="rgb(180,140,163)" stroke="rgb(180,140,163)" stroke-width="2.0" /><path d="M 45.362,404.496 L 51.207,383.5635 " fill="rgb(180,140,163)" stroke="rgb(180,140,163)" stroke-width="2.0" /><path d="M 46.66,416.4365 " fill="rgb(50,91,14)" stroke="rgb(50,91,14)" stroke-width="2.0" /><path d="M 64.594,404.9635 " fill="rgb(26,173,148)" stroke="rgb(26,173,148)" stroke-width="2.0" /><path d="M 64.594,404.963 L 78.574,401.2615 " fill="rgb(26,173,148)" stroke="rgb(26,173,148)" stroke-width="2.0" /><path d="M 89.77,396.4595 " fill="rgb(83,145,25)" stroke="rgb(83,145,25)" stroke-width="2.0" /><path d="M 107.069,393.3395 " fill="rgb(204,129,210)" stroke="rgb(204,129,210)" stroke-width="2.0" /><path d="M 114.638,392.5245 " fill="rgb(18,75,28)" stroke="rgb(18,75,28)" stroke-width="2.0" /><path d="M 229.037,377.055 L 222.8335,396.62 " fill="rgb(18,75,28)" stroke="rgb(18,75,28)" stroke-width="2.0" /><path d="M 222.833,396.62 L 211.9075,422.945 " fill="rgb(18,75,28)" stroke="rgb(18,75,28)" stroke-width="2.0" /><path d="M 221.4415,408.551 " fill="rgb(109,104,161)" stroke="rgb(109,104,161)" stroke-width="2.0" /><path d="M 235.8865,404.402 " fill="rgb(80,224,130)" stroke="rgb(80,224,130)" stroke-width="2.0" /><path d="M 244.8855,402.995 " fill="rgb(98,72,1)" stroke="rgb(98,72,1)" stroke-width="2.0" /><path d="M 244.885,402.995 L 249.9385,401.692 " fill="rgb(98,72,1)" stroke="rgb(98,72,1)" stroke-width="2.0" /><path d="M 260.6225,401.784 " fill="rgb(62,27,48)" stroke="rgb(62,27,48)" stroke-width="2.0" /><path d="M 268.0925,401.354 " fill="rgb(19,199,160)" stroke="rgb(19,199,160)" stroke-width="2.0" /><path d="M 346.402,422.599 L 356.16,414.277 " fill="rgb(19,199,160)" stroke="rgb(19,199,160)" stroke-width="2.0" /><path d="M 377.992,397.797 " fill="rgb(27,106,169)" stroke="rgb(27,106,169)" stroke-width="2.0" /><path d="M 390.623,388.131 " fill="rgb(118,205,163)" stroke="rgb(118,205,163)" stroke-width="2.0" /><path d="M 397.379,387.337 " fill="rgb(221,209,196)" stroke="rgb(221,209,196)" stroke-width="2.0" /><path d="M 413.142,380.281 " fill="rgb(115,109,120)" stroke="rgb(115,109,120)" stroke-width="2.0" /><path d="M 413.142,380.281 L 420.523,377.834 " fill="rgb(115,109,120)" stroke="rgb(115,109,120)" stroke-width="2.0" /><path d="M 420.523,377.834 L 426.889,378.643 " fill="rgb(115,109,120)" stroke="rgb(115,109,120)" stroke-width="2.0" /><path d="M 439.666,379.031 " fill="rgb(81,158,70)" stroke="rgb(81,158,70)" stroke-width="2.0" /><path d="M 450.532,377.435 " fill="rgb(149,104,132)" stroke="rgb(149,104,132)" stroke-width="2.0" /><path d="M 453.598,377.401 " fill="rgb(178,183,10)" stroke="rgb(178,183,10)" stroke-width="2.0" /><path d="M 521.4,415.214 L 509.8225,403.0025 " fill="rgb(178,183,10)" stroke="rgb(178,183,10)" stroke-width="2.0" /><path d="M 512.8605,384.7855 " fill="rgb(154,172,39)" stroke="rgb(154,172,39)" stroke-width="2.0" /><path d="M 512.861,384.786 L 519.6565,389.3575 " fill="rgb(154,172,39)" stroke="rgb(154,172,39)" stroke-width="2.0" /><path d="M 519.657,389.358 L 525.4485,392.0355 " fill="rgb(154,172,39)" stroke="rgb(154,172,39)" stroke-width="2.0" /><path d="M 525.3045,392.3045 " fill="rgb(65,156,36)" stroke="rgb(65,156,36)" stroke-width="2.0" /><path d="M 530.9225,391.8355 " fill="rgb(127,209,0)" stroke="rgb(127,209,0)" stroke-width="2.0" /><path d="M 537.5135,391.6505 " fill="rgb(134,154,74)" stroke="rgb(134,154,74)" stroke-width="2.0" /><path d="M 537.514,391.651 L 546.0155,391.2735 " fill="rgb(134,154,74)" stroke="rgb(134,154,74)" stroke-width="2.0" /><path d="M 546.5305,392.0275 " fill="rgb(163,64,75)" stroke="rgb(163,64,75)" stroke-width="2.0" /><path d="M 546.531,392.028 L 554.9505,391.1135 " fill="rgb(163,64,75)" stroke="rgb(163,64,75)" stroke-width="2.0" /><path d="M 561.2785,391.3155 " fill="rgb(147,69,39)" stroke="rgb(147,69,39)" stroke-width="2.0" /><path d="M 570.6705,390.1765 " fill="rgb(31,116,137)" stroke="rgb(31,116,137)" stroke-width="2.0" /><path d="M 570.671,390.177 L 588.1085,388.5195 " fill="rgb(31,116,137)" stroke="rgb(31,116,137)" stroke-width="2.0" /><path d="M 588.109,388.52 L 597.1955,387.7155 " fill="rgb(31,116,137)" stroke="rgb(31,116,137)" stroke-width="2.0" /><path d="M 597.196,387.716 L 601.1905,388.4365 " fill="rgb(31,116,137)" stroke="rgb(31,116,137)" stroke-width="2.0" /><path d="M 610.1775,387.9615 " fill="rgb(52,161,195)" stroke="rgb(52,161,195)" stroke-width="2.0" /><path d="M 660.821,434.712 L 678.8265,413.7095 " fill="rgb(52,161,195)" stroke="rgb(52,161,195)" stroke-width="2.0" /><path d="M 693.9055,368.4195 " fill="rgb(87,143,83)" stroke="rgb(87,143,83)" stroke-width="2.0" /><path d="M 702.2915,367.2475 " fill="rgb(58,84,92)" stroke="rgb(58,84,92)" stroke-width="2.0" /><path d="M 702.291,367.247 L 709.3795,369.0155 " fill="rgb(58,84,92)" stroke="rgb(58,84,92)" stroke-width="2.0" /><path d="M 709.379,369.015 L 718.5275,367.9435 " fill="rgb(58,84,92)" stroke="rgb(58,84,92)" stroke-width="2.0" /><path d="M 718.527,367.943 L 726.6715,365.9895 " fill="rgb(58,84,92)" stroke="rgb(58,84,92)" stroke-width="2.0" /><path d="M 730.8065,366.4585 " fill="rgb(28,184,155)" stroke="rgb(28,184,155)" stroke-width="2.0" /><path d="M 740.1805,366.6615 " fill="rgb(67,44,8)" stroke="rgb(67,44,8)" stroke-width="2.0" /><path d="M 740.18,366.661 L 746.3515,366.6435 " fill="rgb(67,44,8)" stroke="rgb(67,44,8)" stroke-width="2.0" /><path d="M 746.351,366.643 L 757.9615,366.5315 " fill="rgb(67,44,8)" stroke="rgb(67,44,8)" stroke-width="2.0" /><path d="M 761.7115,366.1475 " fill="rgb(129,186,84)" stroke="rgb(129,186,84)" stroke-width="2.0" /><path d="M 769.6115,365.2875 " fill="rgb(44,151,159)" stroke="rgb(44,151,159)" stroke-width="2.0" /><path d="M 773.2775,366.4135 " fill="rgb(88,61,66)" stroke="rgb(88,61,66)" stroke-width="2.0" /><path d="M 779.1795,366.0535 " fill="rgb(221,135,3)" stroke="rgb(221,135,3)" stroke-width="2.0" /><path d="M 62.708,599.396 L 74.58,574.157 " fill="rgb(221,135,3)" stroke="rgb(221,135,3)" stroke-width="2.0" /><path d="M 62.63,545.38 " fill="rgb(50,145,88)" stroke="rgb(50,145,88)" stroke-width="2.0" /><path d="M 77.051,534.456 " fill="rgb(61,26,75)" stroke="rgb(61,26,75)" stroke-width="2.0" /><path d="M 92.681,525.142 " fill="rgb(139,146,223)" stroke="rgb(139,146,223)" stroke-width="2.0" /><path d="M 94.63,521.112 " fill="rgb(148,19,95)" stroke="rgb(148,19,95)" stroke-width="2.0" /><path d="M 94.63,521.112 L 97.37,520.604 " fill="rgb(148,19,95)" stroke="rgb(148,19,95)" stroke-width="2.0" /><path d="M 227.157,568.133 L 244.9685,541.5005 " fill="rgb(148,19,95)" stroke="rgb(148,19,95)" stroke-width="2.0" /><path d="M 219.9235,564.2635 " fill="rgb(10,125,57)" stroke="rgb(10,125,57)" stroke-width="2.0" /><path d="M 219.923,564.264 L 214.4345,578.4995 " fill="rgb(10,125,57)" stroke="rgb(10,125,57)" stroke-width="2.0" /><path d="M 229.3845,571.3055 " fill="rgb(84,31,130)" stroke="rgb(84,31,130)" stroke-width="2.0" /><path d="M 239.9005,567.6255 " fill="rgb(25,164,182)" stroke="rgb(25,164,182)" stroke-width="2.0" /><path d="M 250.9265,566.0685 " fill="rgb(36,51,116)" stroke="rgb(36,51,116)" stroke-width="2.0" /><path d="M 250.926,566.069 L 255.2575,566.2885 " fill="rgb(36,51,116)" stroke="rgb(36,51,116)" stroke-width="2.0" /><path d="M 255.257,566.289 L 257.0885,566.7405 " fill="rgb(36,51,116)" stroke="rgb(36,51,116)" stroke-width="2.0" /><path d="M 265.5655,567.2715 " fill="rgb(88,166,24)" stroke="rgb(88,166,24)" stroke-width="2.0" /><path d="M 371.196,593.16 L 375.089,545.4555 " fill="rgb(88,166,24)" stroke="rgb(88,166,24)" stroke-width="2.0" /><path d="M 375.089,545.455 L 358.448,533.0005 " fill="rgb(88,166,24)" stroke="rgb(88,166,24)" stroke-width="2.0" /><path d="M 363.84,538.4205 " fill="rgb(104,149,206)" stroke="rgb(104,149,206)" stroke-width="2.0" /><path d="M 378.224,533.2735 " fill="rgb(168,144,80)" stroke="rgb(168,144,80)" stroke-width="2.0" /><path d="M 389.448,532.8835 " fill="rgb(191,95,150)" stroke="rgb(191,95,150)" stroke-width="2.0" /><path d="M 389.448,532.883 L 405.388,528.9305 " fill="rgb(191,95,150)" stroke="rgb(191,95,150)" stroke-width="2.0" /><path d="M 405.388,528.93 L 410.804,530.5775 " fill="rgb(191,95,150)" stroke="rgb(191,95,150)" stroke-width="2.0" /><path d="M 423.077,529.3205 " fill="rgb(157,165,220)" stroke="rgb(157,165,220)" stroke-width="2.0" /><path d="M 423.077,529.32 L 428.615,528.6475 " fill="rgb(157,165,220)" stroke="rgb(157,165,220)" stroke-width="2.0" /><path d="M 441.552,526.8395 " fill="rgb(31,147,67)" stroke="rgb(31,147,67)" stroke-width="2.0" /><path d="M 512.567,570.872 L 527.7235,572.8305 " fill="rgb(31,147,67)" stroke="rgb(31,147,67)" stroke-width="2.0" /><path d="M 535.2475,574.8015 " fill="rgb(149,184,48)" stroke="rgb(149,184,48)" stroke-width="2.0" /><path d="M 555.6785,553.8995 " fill="rgb(114,178,6)" stroke="rgb(114,178,6)" stroke-width="2.0" /><path d="M 555.678,553.899 L 565.1755,548.3215 " fill="rgb(114,178,6)" stroke="rgb(114,178,6)" stroke-width="2.0" /><path d="M 565.175,548.321 L 569.5945,549.3855 " fill="rgb(114,178,6)" stroke="rgb(114,178,6)" stroke-width="2.0" /><path d="M 574.3475,548.4595 " fill="rgb(72,53,203)" stroke="rgb(72,53,203)" stroke-width="2.0" /><path d="M 586.2845,546.9835 " fill="rgb(52,42,114)" stroke="rgb(52,42,114)" stroke-width="2.0" /><path d="M 598.7445,546.5465 " fill="rgb(31,173,182)" stroke="rgb(31,173,182)" stroke-width="2.0" /><path d="M 607.4325,545.1985 " fill="rgb(143,41,217)" stroke="rgb(143,41,217)" stroke-width="2.0" /><path d="M 664.747,577.992 L 674.569,558.824 " fill="rgb(143,41,217)" stroke="rgb(143,41,217)" stroke-width="2.0" /><path d="M 674.569,558.824 L 686.529,563.032 " fill="rgb(143,41,217)" stroke="rgb(143,41,217)" stroke-width="2.0" /><path d="M 698.958,554.436 " fill="rgb(90,79,173)" stroke="rgb(90,79,173)" stroke-width="2.0" /><path d="M 698.958,554.436 L 706.901,549.198 " fill="rgb(90,79,173)" stroke="rgb(90,79,173)" stroke-width="2.0" /><path d="M 714.016,546.439 " fill="rgb(97,14,102)" stroke="rgb(97,14,102)" stroke-width="2.0" /><path d="M 718.79,545.715 " fill="rgb(143,71,84)" stroke="rgb(143,71,84)" stroke-width="2.0" /><path d="M 725.176,545.4 " fill="rgb(212,182,14)" stroke="rgb(212,182,14)" stroke-width="2.0" /><path d="M 728.148,545.503 " fill="rgb(87,211,37)" stroke="rgb(87,211,37)" stroke-width="2.0" /><path d="M 728.148,545.503 L 742.808,544.746 " fill="rgb(87,211,37)" stroke="rgb(87,211,37)" stroke-width="2.0" /><path d="M 750.136,544.803 " fill="rgb(70,55,30)" stroke="rgb(70,55,30)" stroke-width="2.0" /><path d="M 750.136,544.803 L 757.458,543.866 " fill="rgb(70,55,30)" stroke="rgb(70,55,30)" stroke-width="2.0" /><path d="M 757.458,543.866 L 764.837,543.019 " fill="rgb(70,55,30)" stroke="rgb(70,55,30)" stroke-width="2.0" /><path d="M 775.253,542.008 " fill="rgb(24,76,55)" stroke="rgb(24,76,55)" stroke-width="2.0" /><path d="M 42.773,695.804 L 61.4305,741.095 " fill="rgb(24,76,55)" stroke="rgb(24,76,55)" stroke-width="2.0" /><path d="M 62.5055,735.856 " fill="rgb(68,13,61)" stroke="rgb(68,13,61)" stroke-width="2.0" /><path d="M 72.2015,744.196 " fill="rgb(41,55,104)" stroke="rgb(41,55,104)" stroke-width="2.0" /><path d="M 87.5565,739.672 " fill="rgb(124,201,9)" stroke="rgb(124,201,9)" stroke-width="2.0" /><path d="M 94.9135,740.861 " fill="rgb(116,203,221)" stroke="rgb(116,203,221)" stroke-width="2.0" /><path d="M 94.914,740.861 L 111.6155,740.026 " fill="rgb(116,203,221)" stroke="rgb(116,203,221)" stroke-width="2.0" /><path d="M 111.616,740.026 L 117.2275,739.835 " fill="rgb(116,203,221)" stroke="rgb(116,203,221)" stroke-width="2.0" /><path d="M 194.954,733.011 L 217.187,718.6355 " fill="rgb(116,203,221)" stroke="rgb(116,203,221)" stroke-width="2.0" /><path d="M 209.389,729.5375 " fill="rgb(59,191,69)" stroke="rgb(59,191,69)" stroke-width="2.0" /><path d="M 222.288,709.7975 " fill="rgb(115,60,87)" stroke="rgb(115,60,87)" stroke-width="2.0" /><path d="M 222.288,709.798 L 234.618,709.7175 " fill="rgb(115,60,87)" stroke="rgb(115,60,87)" stroke-width="2.0" /><path d="M 234.618,709.717 L 245.705,708.9875 " fill="rgb(115,60,87)" stroke="rgb(115,60,87)" stroke-width="2.0" /><path d="M 245.705,708.987 L 249.88,707.7215 " fill="rgb(115,60,87)" stroke="rgb(115,60,87)" stroke-width="2.0" /><path d="M 257.731,708.2915 " fill="rgb(212,74,131)" stroke="rgb(212,74,131)" stroke-width="2.0" /><path d="M 257.731,708.292 L 261.247,707.7215 " fill="rgb(212,74,131)" stroke="rgb(212,74,131)" stroke-width="2.0" /><path d="M 264.486,709.2025 " fill="rgb(137,150,150)" stroke="rgb(137,150,150)" stroke-width="2.0" /><path d="M 278.268,707.3885 " fill="rgb(50,90,110)" stroke="rgb(50,90,110)" stroke-width="2.0" /><path d="M 278.268,707.389 L 285.046,706.9885 " fill="rgb(50,90,110)" stroke="rgb(50,90,110)" stroke-width="2.0" /><path d="M 375.592,724.482 L 404.7735,710.585 " fill="rgb(50,90,110)" stroke="rgb(50,90,110)" stroke-width="2.0" /><path d="M 391.9495,719.369 " fill="rgb(63,96,112)" stroke="rgb(63,96,112)" stroke-width="2.0" /><path d="M 402.2575,729.143 " fill="rgb(180,54,134)" stroke="rgb(180,54,134)" stroke-width="2.0" /><path d="M 407.3915,729.415 " fill="rgb(135,118,181)" stroke="rgb(135,118,181)" stroke-width="2.0" /><path d="M 414.3725,728.87 " fill="rgb(56,16,153)" stroke="rgb(56,16,153)" stroke-width="2.0" /><path d="M 424.4075,727.951 " fill="rgb(219,150,164)" stroke="rgb(219,150,164)" stroke-width="2.0" /><path d="M 511.954,756.818 L 536.5015,730.3775 " fill="rgb(219,150,164)" stroke="rgb(219,150,164)" stroke-width="2.0" /><path d="M 545.5515,708.4655 " fill="rgb(198,49,192)" stroke="rgb(198,49,192)" stroke-width="2.0" /><path d="M 545.551,708.465 L 560.5645,694.1325 " fill="rgb(198,49,192)" stroke="rgb(198,49,192)" stroke-width="2.0" /><path d="M 570.4105,688.0915 " fill="rgb(20,96,88)" stroke="rgb(20,96,88)" stroke-width="2.0" /><path d="M 570.41,688.091 L 580.0215,684.4725 " fill="rgb(20,96,88)" stroke="rgb(20,96,88)" stroke-width="2.0" /><path d="M 580.021,684.472 L 592.0095,684.1735 " fill="rgb(20,96,88)" stroke="rgb(20,96,88)" stroke-width="2.0" /><path d="M 605.5735,683.1815 " fill="rgb(33,81,152)" stroke="rgb(33,81,152)" stroke-width="2.0" /><path d="M 608.0455,684.0195 " fill="rgb(79,83,153)" stroke="rgb(79,83,153)" stroke-width="2.0" /><path d="M 696.169,760.966 L 712.5785,710.374 " fill="rgb(79,83,153)" stroke="rgb(79,83,153)" stroke-width="2.0" /><path d="M 666.2325,711.785 " fill="rgb(210,150,162)" stroke="rgb(210,150,162)" stroke-width="2.0" /><path d="M 666.232,711.785 L 678.1005,695.646 " fill="rgb(210,150,162)" stroke="rgb(210,150,162)" stroke-width="2.0" /><path d="M 692.0865,688.003 " fill="rgb(192,1,165)" stroke="rgb(192,1,165)" stroke-width="2.0" /><path d="M 692.087,688.003 L 705.0755,684.03 " fill="rgb(192,1,165)" stroke="rgb(192,1,165)" stroke-width="2.0" /><path d="M 712.9615,681.83 " fill="rgb(43,145,43)" stroke="rgb(43,145,43)" stroke-width="2.0" /><path d="M 716.6375,681.266 " fill="rgb(67,107,106)" stroke="rgb(67,107,106)" stroke-width="2.0" /><path d="M 716.638,681.266 L 723.9875,681.656 " fill="rgb(67,107,106)" stroke="rgb(67,107,106)" stroke-width="2.0" /><path d="M 727.2055,681.813 " fill="rgb(180,27,160)" stroke="rgb(180,27,160)" stroke-width="2.0" /><path d="M 727.206,681.813 L 734.0985,681.349 " fill="rgb(180,27,160)" stroke="rgb(180,27,160)" stroke-width="2.0" /><path d="M 743.3065,680.97 " fill="rgb(217,159,148)" stroke="rgb(217,159,148)" stroke-width="2.0" /><path d="M 743.307,680.97 L 750.8535,679.939 " fill="rgb(217,159,148)" stroke="rgb(217,159,148)" stroke-width="2.0" /><path d="M 750.854,679.939 L 765.0665,679.034 " fill="rgb(217,159,148)" stroke="rgb(217,159,148)" stroke-width="2.0" /><path d="M 765.067,679.034 L 773.7675,680.864 " fill="rgb(217,159,148)" stroke="rgb(217,159,148)" stroke-width="2.0" /><path d="M 69.414,931.418 L 90.873,909.668 " fill="rgb(217,159,148)" stroke="rgb(217,159,148)" stroke-width="2.0" /><path d="M 53.076,848.562 " fill="rgb(217,2,210)" stroke="rgb(217,2,210)" stroke-width="2.0" /><path d="M 61.281,842.264 " fill="rgb(91,134,143)" stroke="rgb(91,134,143)" stroke-width="2.0" /><path d="M 61.281,842.264 L 78.351,830.335 " fill="rgb(91,134,143)" stroke="rgb(91,134,143)" stroke-width="2.0" /><path d="M 83.774,828.907 " fill="rgb(161,122,26)" stroke="rgb(161,122,26)" stroke-width="2.0" /><path d="M 91.596,828.747 " fill="rgb(126,119,125)" stroke="rgb(126,119,125)" stroke-width="2.0" /><path d="M 99.758,828.81 " fill="rgb(185,20,196)" stroke="rgb(185,20,196)" stroke-width="2.0" /><path d="M 106.924,828.582 " fill="rgb(176,134,41)" stroke="rgb(176,134,41)" stroke-width="2.0" /><path d="M 238.738,932.102 L 256.192,901.9275 " fill="rgb(176,134,41)" stroke="rgb(176,134,41)" stroke-width="2.0" /><path d="M 230.88,827.8975 " fill="rgb(44,215,29)" stroke="rgb(44,215,29)" stroke-width="2.0" /><path d="M 223.808,837.8615 " fill="rgb(134,167,221)" stroke="rgb(134,167,221)" stroke-width="2.0" /><path d="M 238.106,829.8895 " fill="rgb(23,46,221)" stroke="rgb(23,46,221)" stroke-width="2.0" /><path d="M 246.915,828.8455 " fill="rgb(9,103,64)" stroke="rgb(9,103,64)" stroke-width="2.0" /><path d="M 353.005,897.577 L 375.232,873.577 " fill="rgb(9,103,64)" stroke="rgb(9,103,64)" stroke-width="2.0" /><path d="M 391.841,862.423 " fill="rgb(40,48,81)" stroke="rgb(40,48,81)" stroke-width="2.0" /><path d="M 391.841,862.423 L 384.647,879.535 " fill="rgb(40,48,81)" stroke="rgb(40,48,81)" stroke-width="2.0" /><path d="M 401.398,870.465 " fill="rgb(207,212,161)" stroke="rgb(207,212,161)" stroke-width="2.0" /><path d="M 401.398,870.465 L 411.977,867.655 " fill="rgb(207,212,161)" stroke="rgb(207,212,161)" stroke-width="2.0" /><path d="M 422.382,865.174 " fill="rgb(131,54,215)" stroke="rgb(131,54,215)" stroke-width="2.0" /><path d="M 422.382,865.174 L 434.157,865.123 " fill="rgb(131,54,215)" stroke="rgb(131,54,215)" stroke-width="2.0" /><path d="M 439.741,865.442 " fill="rgb(58,7,156)" stroke="rgb(58,7,156)" stroke-width="2.0" /><path d="M 446.995,865.745 " fill="rgb(145,68,7)" stroke="rgb(145,68,7)" stroke-width="2.0" /><path d="M 532.698,890.052 L 525.361,892.3505 " fill="rgb(145,68,7)" stroke="rgb(145,68,7)" stroke-width="2.0" /><path d="M 525.361,892.351 L 534.35,878.9925 " fill="rgb(145,68,7)" stroke="rgb(145,68,7)" stroke-width="2.0" /><path d="M 546.059,872.5245 " fill="rgb(152,19,83)" stroke="rgb(152,19,83)" stroke-width="2.0" /><path d="M 546.059,872.525 L 555.097,868.0095 " fill="rgb(152,19,83)" stroke="rgb(152,19,83)" stroke-width="2.0" /><path d="M 555.097,868.01 L 554.631,869.9605 " fill="rgb(152,19,83)" stroke="rgb(152,19,83)" stroke-width="2.0" /><path d="M 569.157,868.6375 " fill="rgb(10,16,72)" stroke="rgb(10,16,72)" stroke-width="2.0" /><path d="M 573.372,868.8935 " fill="rgb(147,41,48)" stroke="rgb(147,41,48)" stroke-width="2.0" /><path d="M 573.372,868.894 L 587.074,867.7355 " fill="rgb(147,41,48)" stroke="rgb(147,41,48)" stroke-width="2.0" /><path d="M 589.266,867.8685 " fill="rgb(1,32,30)" stroke="rgb(1,32,30)" stroke-width="2.0" /><path d="M 589.266,867.869 L 594.639,867.6495 " fill="rgb(1,32,30)" stroke="rgb(1,32,30)" stroke-width="2.0" /><path d="M 728.796,931.428 L 692.926,864.0355 " fill="rgb(1,32,30)" stroke="rgb(1,32,30)" stroke-width="2.0" /><path d="M 700.705,844.7695 " fill="rgb(142,152,219)" stroke="rgb(142,152,219)" stroke-width="2.0" /><path d="M 700.705,844.769 L 708.074,843.9465 " fill="rgb(142,152,219)" stroke="rgb(142,152,219)" stroke-width="2.0" /><path d="M 708.074,843.947 L 725.897,832.8145 " fill="rgb(142,152,219)" stroke="rgb(142,152,219)" stroke-width="2.0" /><path d="M 735.796,829.9725 " fill="rgb(146,31,25)" stroke="rgb(146,31,25)" stroke-width="2.0" /><path d="M 741.066,829.0465 " fill="rgb(221,182,200)" stroke="rgb(221,182,200)" stroke-width="2.0" /><path d="M 747.074,828.5715 " fill="rgb(84,213,173)" stroke="rgb(84,213,173)" stroke-width="2.0" /></svg>