<?xml version="1.0" encoding="utf-8" ?>
<svg baseProfile="full" height="200.0" version="1.1" width="200" xmlns="http://www.w3.org/2000/svg" xmlns:ev="http://www.w3.org/2001/xml-events" xmlns:xlink="http://www.w3.org/1999/xlink"><defs /><rect fill="white" height="200.0" width="200" x="0" y="0" /><path d="M 58.744,71.34 L 59.5245,73.56 " fill="rgb(212,147,62)" stroke="rgb(212,147,62)" stroke-width="1" /><path d="M 59.524,73.56 L 59.4955,85.025 " fill="rgb(212,147,62)" stroke="rgb(212,147,62)" stroke-width="1" /><path d="M 59.495,85.025 L 59.4665,105.428 " fill="rgb(212,147,62)" stroke="rgb(212,147,62)" stroke-width="1" /><path d="M 59.466,105.428 L 59.5245,116.9 " fill="rgb(212,147,62)" stroke="rgb(212,147,62)" stroke-width="1" /><path d="M 60.1645,72.47 " fill="rgb(20,113,157)" stroke="rgb(20,113,157)" stroke-width="1" /><path d="M 60.164,72.47 L 67.6955,71.566 " fill="rgb(20,113,157)" stroke="rgb(20,113,157)" stroke-width="1" /><path d="M 67.695,71.566 L 75.0845,70.64 " fill="rgb(20,113,157)" stroke="rgb(20,113,157)" stroke-width="1" /><path d="M 75.084,70.64 L 77.6945,72.86 " fill="rgb(20,113,157)" stroke="rgb(20,113,157)" stroke-width="1" /><path d="M 77.694,72.86 L 77.4445,84.665 " fill="rgb(20,113,157)" stroke="rgb(20,113,157)" stroke-width="1" /><path d="M 77.444,84.665 L 77.2515,105.092 " fill="rgb(20,113,157)" stroke="rgb(20,113,157)" stroke-width="1" /><path d="M 77.251,105.092 L 77.1745,116.37 " fill="rgb(20,113,157)" stroke="rgb(20,113,157)" stroke-width="1" /><path d="M 60.5545,92.63 " fill="rgb(206,197,18)" stroke="rgb(206,197,18)" stroke-width="1" /><path d="M 60.554,92.63 L 68.2745,91.98 " fill="rgb(206,197,18)" stroke="rgb(206,197,18)" stroke-width="1" /><path d="M 68.274,91.98 L 70.6145,91.74 " fill="rgb(206,197,18)" stroke="rgb(206,197,18)" stroke-width="1" /><path d="M 60.4145,113.96 " fill="rgb(94,216,22)" stroke="rgb(94,216,22)" stroke-width="1" /><path d="M 60.414,113.96 L 67.7845,113.41 " fill="rgb(94,216,22)" stroke="rgb(94,216,22)" stroke-width="1" /><path d="M 67.784,113.41 L 76.2645,112.92 " fill="rgb(94,216,22)" stroke="rgb(94,216,22)" stroke-width="1" /><path d="M 108.6745,56.72 " fill="rgb(13,114,62)" stroke="rgb(13,114,62)" stroke-width="1" /><path d="M 108.674,56.72 L 112.5235,61.234 " fill="rgb(13,114,62)" stroke="rgb(13,114,62)" stroke-width="1" /><path d="M 112.523,61.234 L 115.1945,66.52 " fill="rgb(13,114,62)" stroke="rgb(13,114,62)" stroke-width="1" /><path d="M 87.0145,73.92 " fill="rgb(208,63,11)" stroke="rgb(208,63,11)" stroke-width="1" /><path d="M 87.014,73.92 L 91.8045,74.19 " fill="rgb(208,63,11)" stroke="rgb(208,63,11)" stroke-width="1" /><path d="M 91.805,74.19 L 107.5745,73.056 " fill="rgb(208,63,11)" stroke="rgb(208,63,11)" stroke-width="1" /><path d="M 107.575,73.056 L 123.5155,71.811 " fill="rgb(208,63,11)" stroke="rgb(208,63,11)" stroke-width="1" /><path d="M 123.516,71.811 L 136.8855,71.17 " fill="rgb(208,63,11)" stroke="rgb(208,63,11)" stroke-width="1" /><path d="M 136.886,71.17 L 141.2555,71.44 " fill="rgb(208,63,11)" stroke="rgb(208,63,11)" stroke-width="1" /><path d="M 91.6855,74.4 " fill="rgb(36,96,194)" stroke="rgb(36,96,194)" stroke-width="1" /><path d="M 91.686,74.4 L 91.5955,78.99 " fill="rgb(36,96,194)" stroke="rgb(36,96,194)" stroke-width="1" /><path d="M 91.596,78.99 L 90.1965,98.978 " fill="rgb(36,96,194)" stroke="rgb(36,96,194)" stroke-width="1" /><path d="M 90.197,98.978 L 86.2955,122.812 " fill="rgb(36,96,194)" stroke="rgb(36,96,194)" stroke-width="1" /><path d="M 86.296,122.812 L 76.9765,143.28 " fill="rgb(36,96,194)" stroke="rgb(36,96,194)" stroke-width="1" /><path d="M 114.3165,89.27 " fill="rgb(143,107,48)" stroke="rgb(143,107,48)" stroke-width="1" /><path d="M 114.317,89.27 L 114.3365,94.94 " fill="rgb(143,107,48)" stroke="rgb(143,107,48)" stroke-width="1" /><path d="M 114.337,94.94 L 109.6355,107.528 " fill="rgb(143,107,48)" stroke="rgb(143,107,48)" stroke-width="1" /><path d="M 109.636,107.528 L 104.0165,119.802 " fill="rgb(143,107,48)" stroke="rgb(143,107,48)" stroke-width="1" /><path d="M 104.017,119.802 L 96.6155,133.13 " fill="rgb(143,107,48)" stroke="rgb(143,107,48)" stroke-width="1" /><path d="M 96.616,133.13 L 98.1855,137.08 " fill="rgb(143,107,48)" stroke="rgb(143,107,48)" stroke-width="1" /><path d="M 98.186,137.08 L 108.5225,134.735 " fill="rgb(143,107,48)" stroke="rgb(143,107,48)" stroke-width="1" /><path d="M 108.523,134.735 L 121.4775,132.172 " fill="rgb(143,107,48)" stroke="rgb(143,107,48)" stroke-width="1" /><path d="M 121.478,132.172 L 134.6545,128.96 " fill="rgb(143,107,48)" stroke="rgb(143,107,48)" stroke-width="1" /><path d="M 127.0045,115.91 " fill="rgb(156,182,67)" stroke="rgb(156,182,67)" stroke-width="1" /><path d="M 127.005,115.91 L 132.0785,122.95 " fill="rgb(156,182,67)" stroke="rgb(156,182,67)" stroke-width="1" /><path d="M 132.079,122.95 L 136.9815,132.653 " fill="rgb(156,182,67)" stroke="rgb(156,182,67)" stroke-width="1" /><path d="M 136.982,132.653 L 139.7955,141.36 " fill="rgb(156,182,67)" stroke="rgb(156,182,67)" stroke-width="1" /></svg>